<?xml version="1.0" encoding="UTF-8"?>
<svg id="Layer_1" data-name="Layer 1" xmlns="http://www.w3.org/2000/svg" xmlns:xlink="http://www.w3.org/1999/xlink" viewBox="0 0 122.67 122.67">
  <defs>
    <style>
      .cls-1 {
        fill: url(#linear-gradient);
        stroke-width: 0px;
      }
    </style>
    <linearGradient id="linear-gradient" x1="6.83" y1="17.22" x2="121.08" y2="109.05" gradientUnits="userSpaceOnUse">
      <stop offset="0" stop-color="#f3903f"/>
      <stop offset="1" stop-color="#ed683c"/>
    </linearGradient>
  </defs>
  <path class="cls-1" d="m49.36,96.27c-.04.13-.07.24-.1.36-1.03,3.35-2.06,6.69-3.09,10.04-.01.04-.02.07-.04.1-4.16-1.38-8.07-3.32-11.64-5.72.49-1.51.98-3.03,1.46-4.54.06-.19.15-.26.35-.26,4.27,0,8.54,0,12.81,0,.07,0,.13,0,.24.02Zm1.7-4.78c1.33-3.42,2.67-6.83,4.01-10.25.04-.11.09-.22.14-.36-.13,0-.22-.01-.31-.01-4.19,0-8.38,0-12.57,0-.22,0-.33.06-.42.27-1.37,3.44-2.76,6.87-4.14,10.31-.04.09-.06.18-.09.3.11,0,.18.02.26.02,4.25,0,8.49,0,12.74,0,.22,0,.3-.08.38-.27Zm-1.83-25.71c-1.69,3.44-3.37,6.87-5.06,10.31-.04.08-.06.17-.1.29.15,0,.24.02.34.02,4.15,0,8.3,0,12.44,0,.26,0,.36-.1.47-.32,1.51-3.19,3.03-6.37,4.54-9.55.15-.32.32-.63.5-.98-.1,0-.13-.02-.17-.02-4.2,0-8.41,0-12.61,0-.22,0-.29.1-.37.26Zm5.16,30.47c-.24,0-.3.1-.36.29-.68,2.09-1.37,4.16-2.04,6.25-.44,1.37-.83,2.76-1.26,4.2h.4c4.22,0,8.43,0,12.64,0,.31,0,.41-.1.5-.38.78-2.63,1.58-5.27,2.38-7.9.25-.81.52-1.61.8-2.44-.11-.01-.18-.03-.26-.03-4.27,0-8.54,0-12.81,0Zm3.91-45.97c-.21,0-.32.09-.42.26-1.97,3.38-3.95,6.77-5.93,10.15-.06.09-.1.19-.16.32.14,0,.24.02.33.02,4.1,0,8.21,0,12.31,0,.25,0,.35-.1.46-.29,1.57-2.79,3.14-5.58,4.72-8.36.39-.68.8-1.35,1.22-2.07-.14-.01-.22-.03-.3-.03-4.08,0-8.16,0-12.24,0Zm14.95,30.6c-.05,0-.1-.01-.14-.01-4.25,0-8.5,0-12.74,0-.21,0-.29.08-.36.26-1.38,3.45-2.77,6.89-4.15,10.34-.03.09-.05.18-.08.29h13.22c1.43-3.63,2.84-7.25,4.27-10.87Zm2.13-4.75c1.64-3.44,3.29-6.88,4.94-10.32.04-.09.07-.18.12-.3h-.38c-4.09,0-8.18,0-12.27,0-.28,0-.41.1-.53.34-1.51,3.06-3.02,6.12-4.52,9.18-.21.43-.4.87-.61,1.33.12.01.2.03.27.03,4.2,0,8.4,0,12.6,0,.2,0,.29-.08.37-.26Zm-2.81,20.11c-.29,0-.41.1-.49.36-.75,2.34-1.52,4.68-2.27,7.02-.35,1.1-.66,2.21-1,3.36h.47c2.18,0,4.36,0,6.54,0,2.53-.8,4.97-1.8,7.3-2.98.54-1.8,1.09-3.6,1.64-5.39.24-.78.5-1.55.77-2.36h-.4c-4.19,0-8.38,0-12.57,0Zm-2.4-35.22c4.12,0,8.25,0,12.37,0,.23,0,.33-.09.43-.28,1.66-2.94,3.32-5.88,4.99-8.82.3-.53.62-1.05.96-1.62-.15-.01-.24-.03-.34-.03-4.06,0-8.11,0-12.17,0-.22,0-.34.07-.45.26-1.88,3.22-3.76,6.43-5.65,9.65-.15.26-.29.52-.45.82.13.01.22.02.31.02Zm20.97,19.84c-4.23,0-8.45,0-12.68,0-.25,0-.33.12-.4.31-1.18,2.9-2.36,5.8-3.53,8.71-.25.61-.47,1.23-.71,1.87h13.24c1.43-3.63,2.84-7.24,4.26-10.86-.06,0-.12-.01-.19-.01Zm1.88-4.48c.26,0,.36-.1.47-.32,1.56-3.28,3.13-6.56,4.7-9.84.1-.22.22-.43.35-.7-.11,0-.15-.01-.19-.01-4.19,0-8.38,0-12.57,0-.25,0-.33.14-.41.31-1.44,2.91-2.88,5.81-4.32,8.72-.29.59-.55,1.19-.84,1.82.15,0,.25.02.35.02,4.16,0,8.31,0,12.47,0Zm8.04-15.65c1.9-3.35,3.81-6.69,5.71-10.04.07-.12.14-.25.22-.4-.14,0-.24-.02-.34-.02-4.06,0-8.11,0-12.17,0-.22,0-.34.08-.45.27-1.36,2.3-2.74,4.6-4.1,6.9-.68,1.15-1.32,2.33-2.01,3.56.14.01.22.02.29.02,4.14,0,8.27,0,12.41,0,.24,0,.33-.11.43-.29Zm-45.69-14.69c.13-.2.26-.26.48-.26,17.07,0,34.14,0,51.2,0-6.38-19.14-24.44-32.95-45.73-32.95-26.61,0-48.18,21.57-48.18,48.18,0,14.95,6.81,28.31,17.5,37.15,3-9.17,6.61-18.12,10.78-26.86,4.15-8.7,8.81-17.11,13.95-25.27Zm53.83,9.44c-.49.83-.98,1.66-1.46,2.49-7.07,12.32-12.95,25.19-17.57,38.63-.45,1.32-.89,2.64-1.32,3.97,12.49-8.7,20.67-23.17,20.67-39.55,0-1.87-.11-3.72-.31-5.54Z"/>
</svg>