<svg width="167" height="138" viewBox="0 0 167 138" fill="none" xmlns="http://www.w3.org/2000/svg">
<g filter="url(#filter0_d_2_67)">
<mask id="path-1-inside-1_2_67" fill="white">
<path d="M97.5312 38.8975C114.107 38.8975 127.544 52.3348 127.544 68.9102C127.544 85.2264 114.524 98.502 98.3066 98.9131L97.5312 98.9229H61.5166V98.9082C49.4324 98.5124 39.7578 88.5935 39.7578 76.4131C39.758 63.9818 49.8353 53.9045 62.2666 53.9043C65.2351 53.9043 68.0691 54.4803 70.6641 55.5244C75.5842 45.6682 85.7664 38.8976 97.5312 38.8975Z"/>
</mask>
<path d="M97.5312 38.8975C114.107 38.8975 127.544 52.3348 127.544 68.9102C127.544 85.2264 114.524 98.502 98.3066 98.9131L97.5312 98.9229H61.5166V98.9082C49.4324 98.5124 39.7578 88.5935 39.7578 76.4131C39.758 63.9818 49.8353 53.9045 62.2666 53.9043C65.2351 53.9043 68.0691 54.4803 70.6641 55.5244C75.5842 45.6682 85.7664 38.8976 97.5312 38.8975Z" fill="url(#paint0_linear_2_67)"/>
<path d="M97.5312 38.8975L97.5312 36.8975L97.5312 36.8975L97.5312 38.8975ZM127.544 68.9102L129.544 68.9102L129.544 68.9101L127.544 68.9102ZM98.3066 98.9131L98.3318 100.913L98.3446 100.913L98.3573 100.912L98.3066 98.9131ZM97.5312 98.9229V100.923H97.5438L97.5564 100.923L97.5312 98.9229ZM61.5166 98.9229H59.5166V100.923H61.5166V98.9229ZM61.5166 98.9082H63.5166V96.9726L61.5821 96.9093L61.5166 98.9082ZM39.7578 76.4131L37.7578 76.4131V76.4131H39.7578ZM62.2666 53.9043L62.2666 51.9043L62.2666 51.9043L62.2666 53.9043ZM70.6641 55.5244L69.9175 57.3799L71.6294 58.0686L72.4535 56.4177L70.6641 55.5244ZM97.5312 38.8975V40.8975C113.002 40.8975 125.544 53.4394 125.544 68.9102L127.544 68.9102L129.544 68.9101C129.544 51.2303 115.211 36.8975 97.5312 36.8975V38.8975ZM127.544 68.9102H125.544C125.544 84.1388 113.391 96.53 98.256 96.9137L98.3066 98.9131L98.3573 100.912C115.656 100.474 129.544 86.314 129.544 68.9102H127.544ZM98.3066 98.9131L98.2815 96.9132L97.5061 96.923L97.5312 98.9229L97.5564 100.923L98.3318 100.913L98.3066 98.9131ZM97.5312 98.9229V96.9229H61.5166V98.9229V100.923H97.5312V98.9229ZM61.5166 98.9229H63.5166V98.9082H61.5166H59.5166V98.9229H61.5166ZM61.5166 98.9082L61.5821 96.9093C50.5726 96.5487 41.7578 87.5107 41.7578 76.4131H39.7578H37.7578C37.7578 89.6764 48.2922 100.476 61.4511 100.907L61.5166 98.9082ZM39.7578 76.4131L41.7578 76.4131C41.758 65.0864 50.9399 55.9045 62.2666 55.9043L62.2666 53.9043L62.2666 51.9043C48.7307 51.9045 37.758 62.8772 37.7578 76.4131L39.7578 76.4131ZM62.2666 53.9043V55.9043C64.9744 55.9043 67.5553 56.4294 69.9175 57.3799L70.6641 55.5244L71.4106 53.669C68.583 52.5312 65.4959 51.9043 62.2666 51.9043V53.9043ZM70.6641 55.5244L72.4535 56.4177C77.0483 47.2132 86.5536 40.8976 97.5313 40.8975L97.5312 38.8975L97.5312 36.8975C84.9792 36.8976 74.1201 44.1232 68.8746 54.6312L70.6641 55.5244Z" fill="white" fill-opacity="0.6" mask="url(#path-1-inside-1_2_67)"/>
</g>
<defs>
<filter id="filter0_d_2_67" x="0.857811" y="-0.00254059" width="165.586" height="137.825" filterUnits="userSpaceOnUse" color-interpolation-filters="sRGB">
<feFlood flood-opacity="0" result="BackgroundImageFix"/>
<feColorMatrix in="SourceAlpha" type="matrix" values="0 0 0 0 0 0 0 0 0 0 0 0 0 0 0 0 0 0 127 0" result="hardAlpha"/>
<feOffset/>
<feGaussianBlur stdDeviation="19.45"/>
<feComposite in2="hardAlpha" operator="out"/>
<feColorMatrix type="matrix" values="0 0 0 0 1 0 0 0 0 1 0 0 0 0 1 0 0 0 0.7 0"/>
<feBlend mode="normal" in2="BackgroundImageFix" result="effect1_dropShadow_2_67"/>
<feBlend mode="normal" in="SourceGraphic" in2="effect1_dropShadow_2_67" result="shape"/>
</filter>
<linearGradient id="paint0_linear_2_67" x1="20.9843" y1="38.8975" x2="167.622" y2="168.223" gradientUnits="userSpaceOnUse">
<stop stop-color="#D9D9D9"/>
<stop offset="1" stop-color="#737373"/>
</linearGradient>
</defs>
</svg>
