<svg width="197" height="141" viewBox="0 0 197 141" fill="none" xmlns="http://www.w3.org/2000/svg">
<g filter="url(#filter0_d_2_68)">
<mask id="path-1-inside-1_2_68" fill="white">
<path d="M100.655 39.5244C115.768 39.5244 128.075 51.5288 128.564 66.5225C131.557 64.5857 135.125 63.4609 138.955 63.4609C149.531 63.4611 158.104 72.0353 158.104 82.6113C158.104 92.6498 150.38 100.882 140.551 101.693V101.761H63.9512V101.755C63.8186 101.757 63.6858 101.761 63.5527 101.761C50.1123 101.761 39.2169 90.8652 39.2168 77.4248C39.2168 63.9843 50.1123 53.0889 63.5527 53.0889C67.757 53.0889 71.7124 54.1546 75.1631 56.0312C79.5285 46.3013 89.3002 39.5244 100.655 39.5244Z"/>
</mask>
<path d="M100.655 39.5244C115.768 39.5244 128.075 51.5288 128.564 66.5225C131.557 64.5857 135.125 63.4609 138.955 63.4609C149.531 63.4611 158.104 72.0353 158.104 82.6113C158.104 92.6498 150.38 100.882 140.551 101.693V101.761H63.9512V101.755C63.8186 101.757 63.6858 101.761 63.5527 101.761C50.1123 101.761 39.2169 90.8652 39.2168 77.4248C39.2168 63.9843 50.1123 53.0889 63.5527 53.0889C67.757 53.0889 71.7124 54.1546 75.1631 56.0312C79.5285 46.3013 89.3002 39.5244 100.655 39.5244Z" fill="url(#paint0_linear_2_68)"/>
<path d="M100.655 39.5244L100.655 37.5244H100.655V39.5244ZM128.564 66.5225L126.566 66.5878L126.681 70.1236L129.651 68.2015L128.564 66.5225ZM138.955 63.4609L138.955 61.4609H138.955V63.4609ZM158.104 82.6113L160.104 82.6114V82.6113H158.104ZM140.551 101.693L140.386 99.7001L138.551 99.8516V101.693H140.551ZM140.551 101.761V103.761H142.551V101.761H140.551ZM63.9512 101.761H61.9512V103.761H63.9512V101.761ZM63.9512 101.755H65.9512V99.7225L63.9191 99.7551L63.9512 101.755ZM63.5527 101.761L63.5527 103.761L63.5527 103.761L63.5527 101.761ZM39.2168 77.4248L37.2168 77.4248L37.2168 77.4248L39.2168 77.4248ZM63.5527 53.0889L63.5527 51.0889H63.5527V53.0889ZM75.1631 56.0312L74.2075 57.7882L76.1041 58.8197L76.9878 56.8499L75.1631 56.0312ZM100.655 39.5244L100.655 41.5244C114.685 41.5244 126.111 52.6689 126.566 66.5878L128.564 66.5225L130.563 66.4572C130.038 50.3887 116.851 37.5244 100.655 37.5244L100.655 39.5244ZM128.564 66.5225L129.651 68.2015C132.33 66.4679 135.522 65.4609 138.955 65.4609V63.4609V61.4609C134.728 61.4609 130.784 62.7035 127.478 64.8434L128.564 66.5225ZM138.955 63.4609L138.955 65.4609C148.426 65.4611 156.104 73.1398 156.104 82.6113H158.104H160.104C160.104 70.9308 150.636 61.4611 138.955 61.4609L138.955 63.4609ZM158.104 82.6113L156.104 82.6113C156.104 91.6001 149.187 98.9739 140.386 99.7001L140.551 101.693L140.715 103.687C151.573 102.791 160.104 93.6995 160.104 82.6114L158.104 82.6113ZM140.551 101.693H138.551V101.761H140.551H142.551V101.693H140.551ZM140.551 101.761V99.7607H63.9512V101.761V103.761H140.551V101.761ZM63.9512 101.761H65.9512V101.755H63.9512H61.9512V101.761H63.9512ZM63.9512 101.755L63.9191 99.7551C63.7538 99.7578 63.6651 99.7607 63.5527 99.7607L63.5527 101.761L63.5527 103.761C63.7066 103.761 63.8834 103.756 63.9833 103.755L63.9512 101.755ZM63.5527 101.761V99.7607C51.2169 99.7607 41.2169 89.7607 41.2168 77.4248L39.2168 77.4248L37.2168 77.4248C37.2169 91.9698 49.0077 103.761 63.5527 103.761V101.761ZM39.2168 77.4248H41.2168C41.2168 65.0889 51.2168 55.0889 63.5527 55.0889V53.0889V51.0889C49.0077 51.0889 37.2168 62.8798 37.2168 77.4248H39.2168ZM63.5527 53.0889L63.5527 55.0889C67.4151 55.0889 71.0429 56.0671 74.2075 57.7882L75.1631 56.0312L76.1186 54.2743C72.3819 52.242 68.0989 51.0889 63.5527 51.0889L63.5527 53.0889ZM75.1631 56.0312L76.9878 56.8499C81.0425 47.8125 90.1165 41.5244 100.655 41.5244V39.5244V37.5244C88.4839 37.5244 78.0144 44.7902 73.3383 55.2126L75.1631 56.0312Z" fill="white" fill-opacity="0.6" mask="url(#path-1-inside-1_2_68)"/>
</g>
<defs>
<filter id="filter0_d_2_68" x="0.316795" y="0.624413" width="196.688" height="140.036" filterUnits="userSpaceOnUse" color-interpolation-filters="sRGB">
<feFlood flood-opacity="0" result="BackgroundImageFix"/>
<feColorMatrix in="SourceAlpha" type="matrix" values="0 0 0 0 0 0 0 0 0 0 0 0 0 0 0 0 0 0 127 0" result="hardAlpha"/>
<feOffset/>
<feGaussianBlur stdDeviation="19.45"/>
<feComposite in2="hardAlpha" operator="out"/>
<feColorMatrix type="matrix" values="0 0 0 0 1 0 0 0 0 1 0 0 0 0 1 0 0 0 0.7 0"/>
<feBlend mode="normal" in2="BackgroundImageFix" result="effect1_dropShadow_2_68"/>
<feBlend mode="normal" in="SourceGraphic" in2="effect1_dropShadow_2_68" result="shape"/>
</filter>
<linearGradient id="paint0_linear_2_68" x1="13.792" y1="39.5244" x2="165.511" y2="214.3" gradientUnits="userSpaceOnUse">
<stop stop-color="#D9D9D9"/>
<stop offset="1" stop-color="#737373"/>
</linearGradient>
</defs>
</svg>
