<svg width="670" height="625" viewBox="0 0 670 625" fill="none" xmlns="http://www.w3.org/2000/svg">
<g filter="url(#filter0_ii_4_108)">
<path d="M0 219H111.835C172.637 219 222 268.289 222 329H110.165C49.3633 329 0 279.711 0 219Z" fill="url(#paint0_linear_4_108)"/>
<path d="M0 219H111.835C172.637 219 222 268.289 222 329H110.165C49.3633 329 0 279.711 0 219Z" fill="white" fill-opacity="0.02"/>
</g>
<g filter="url(#filter1_ii_4_108)">
<path d="M111 0H223.339C284.414 0 334 49.7375 334 111H221.661C160.586 111 111 61.2625 111 0Z" fill="url(#paint1_linear_4_108)"/>
<path d="M111 0H223.339C284.414 0 334 49.7375 334 111H221.661C160.586 111 111 61.2625 111 0Z" fill="white" fill-opacity="0.02"/>
</g>
<g filter="url(#filter2_ii_4_108)">
<path d="M223 332V441H116V439.322C116 380.088 163.944 332 223 332Z" fill="url(#paint2_linear_4_108)"/>
<path d="M223 332V441H116V439.322C116 380.088 163.944 332 223 332Z" fill="white" fill-opacity="0.02"/>
</g>
<g filter="url(#filter3_ii_4_108)">
<path d="M222.006 332H446C446 393.263 396.564 443 335.672 443H332.328C271.436 443 222 393.263 222 332H222.006Z" fill="url(#paint3_linear_4_108)"/>
<path d="M222.006 332H446C446 393.263 396.564 443 335.672 443H332.328C271.436 443 222 393.263 222 332H222.006Z" fill="white" fill-opacity="0.02"/>
</g>
<g filter="url(#filter4_ii_4_108)">
<path d="M446.006 111H670C670 171.711 620.564 221 559.672 221H556.328C495.436 221 446 171.711 446 111H446.006Z" fill="url(#paint4_linear_4_108)"/>
<path d="M446.006 111H670C670 171.711 620.564 221 559.672 221H556.328C495.436 221 446 171.711 446 111H446.006Z" fill="white" fill-opacity="0.02"/>
</g>
<g filter="url(#filter5_ii_4_108)">
<path d="M382.494 4H436V58.0031C436 87.8041 412.027 112 382.5 112C352.973 112 329 87.8041 329 58.0031C329 28.2021 352.973 4 382.5 4H382.494Z" fill="url(#paint5_linear_4_108)"/>
<path d="M382.494 4H436V58.0031C436 87.8041 412.027 112 382.5 112C352.973 112 329 87.8041 329 58.0031C329 28.2021 352.973 4 382.5 4H382.494Z" fill="white" fill-opacity="0.02"/>
</g>
<g filter="url(#filter6_ii_4_108)">
<path d="M446 386.506V333H500.003C529.804 333 554 356.973 554 386.5C554 416.027 529.804 440 500.003 440C470.202 440 446 416.027 446 386.5V386.506Z" fill="url(#paint6_linear_4_108)"/>
<path d="M446 386.506V333H500.003C529.804 333 554 356.973 554 386.5C554 416.027 529.804 440 500.003 440C470.202 440 446 416.027 446 386.5V386.506Z" fill="white" fill-opacity="0.02"/>
</g>
<g filter="url(#filter7_ii_4_108)">
<path d="M446 222.5C446 160.92 396.08 111 334.5 111C272.92 111 223 160.92 223 222.5C223 284.08 272.92 334 334.5 334C396.08 334 446 284.08 446 222.5Z" fill="url(#paint7_linear_4_108)"/>
<path d="M446 222.5C446 160.92 396.08 111 334.5 111C272.92 111 223 160.92 223 222.5C223 284.08 272.92 334 334.5 334C396.08 334 446 284.08 446 222.5Z" fill="white" fill-opacity="0.02"/>
</g>
<g filter="url(#filter8_dd_4_108)">
<path d="M334.67 267C343.83 287.766 390.371 359.828 451.462 335.891C475.016 326.661 476.652 283.811 445.246 285.129C418.747 286.242 416.457 316.028 354.626 335.891C309.48 350.394 258.445 302.599 227.039 314.136C195.632 325.673 218.371 371.779 249.939 379.731C280.036 387.312 308.171 364.238 329.436 371.49C341.042 375.448 334.67 405.331 334.67 415" stroke="#D9D9D9" stroke-opacity="0.75" stroke-width="4" shape-rendering="crispEdges"/>
</g>
<g filter="url(#filter9_dd_4_108)">
<rect x="398.058" y="218.711" width="15.3745" height="5.32195" fill="#D9D9D9"/>
<rect x="398.058" y="218.711" width="15.3745" height="5.32195" fill="url(#paint8_linear_4_108)"/>
<rect x="398.558" y="219.211" width="14.3745" height="4.32195" stroke="#F2C395"/>
</g>
<g filter="url(#filter10_dd_4_108)">
<rect x="255.548" y="218.711" width="15.3745" height="5.32195" fill="#D9D9D9"/>
<rect x="255.548" y="218.711" width="15.3745" height="5.32195" fill="url(#paint9_linear_4_108)"/>
<rect x="256.048" y="219.211" width="14.3745" height="4.32195" stroke="#F2C395"/>
</g>
<g filter="url(#filter11_dd_4_108)">
<rect x="331.829" y="157.804" width="15.3745" height="4.73062" transform="rotate(-90 331.829 157.804)" fill="#D9D9D9"/>
<rect x="331.829" y="157.804" width="15.3745" height="4.73062" transform="rotate(-90 331.829 157.804)" fill="url(#paint10_linear_4_108)"/>
<rect x="332.329" y="157.304" width="14.3745" height="3.73062" transform="rotate(-90 332.329 157.304)" stroke="#F2C395"/>
</g>
<g filter="url(#filter12_dd_4_108)">
<rect x="331.829" y="300.314" width="15.9659" height="4.73062" transform="rotate(-90 331.829 300.314)" fill="#D9D9D9"/>
<rect x="331.829" y="300.314" width="15.9659" height="4.73062" transform="rotate(-90 331.829 300.314)" fill="url(#paint11_linear_4_108)"/>
<rect x="332.329" y="299.814" width="14.9659" height="3.73062" transform="rotate(-90 332.329 299.814)" stroke="#F2C395"/>
</g>
<g filter="url(#filter13_dd_4_108)">
<rect x="278.189" y="191.521" width="15.5214" height="5.00691" transform="rotate(-150 278.189 191.521)" fill="#D9D9D9"/>
<rect x="278.189" y="191.521" width="15.5214" height="5.00691" transform="rotate(-150 278.189 191.521)" fill="url(#paint12_linear_4_108)"/>
<rect x="278.006" y="190.838" width="14.5214" height="4.00691" transform="rotate(-150 278.006 190.838)" stroke="#F2C395"/>
</g>
<g filter="url(#filter14_dd_4_108)">
<rect x="401.768" y="262.87" width="15.5214" height="5.00691" transform="rotate(-150 401.768 262.87)" fill="#D9D9D9"/>
<rect x="401.768" y="262.87" width="15.5214" height="5.00691" transform="rotate(-150 401.768 262.87)" fill="url(#paint13_linear_4_108)"/>
<rect x="401.585" y="262.187" width="14.5214" height="4.00691" transform="rotate(-150 401.585 262.187)" stroke="#F2C395"/>
</g>
<g filter="url(#filter15_dd_4_108)">
<rect x="280.693" y="255.109" width="15.5214" height="5.00691" transform="rotate(150 280.693 255.109)" fill="#D9D9D9"/>
<rect x="280.693" y="255.109" width="15.5214" height="5.00691" transform="rotate(150 280.693 255.109)" fill="url(#paint14_linear_4_108)"/>
<rect x="280.01" y="254.926" width="14.5214" height="4.00691" transform="rotate(150 280.01 254.926)" stroke="#F2C395"/>
</g>
<g filter="url(#filter16_dd_4_108)">
<rect x="404.272" y="183.761" width="15.5214" height="5.00691" transform="rotate(150 404.272 183.761)" fill="#D9D9D9"/>
<rect x="404.272" y="183.761" width="15.5214" height="5.00691" transform="rotate(150 404.272 183.761)" fill="url(#paint15_linear_4_108)"/>
<rect x="403.589" y="183.578" width="14.5214" height="4.00691" transform="rotate(150 403.589 183.578)" stroke="#F2C395"/>
</g>
<g filter="url(#filter17_dd_4_108)">
<rect x="304.884" y="277.468" width="15.5214" height="5.00691" transform="rotate(120 304.884 277.468)" fill="#D9D9D9"/>
<rect x="304.884" y="277.468" width="15.5214" height="5.00691" transform="rotate(120 304.884 277.468)" fill="url(#paint16_linear_4_108)"/>
<rect x="304.201" y="277.651" width="14.5214" height="4.00691" transform="rotate(120 304.201 277.651)" stroke="#F2C395"/>
</g>
<g filter="url(#filter18_dd_4_108)">
<rect x="376.232" y="153.888" width="15.5214" height="5.00691" transform="rotate(120 376.232 153.888)" fill="#D9D9D9"/>
<rect x="376.232" y="153.888" width="15.5214" height="5.00691" transform="rotate(120 376.232 153.888)" fill="url(#paint17_linear_4_108)"/>
<rect x="375.549" y="154.071" width="14.5214" height="4.00691" transform="rotate(120 375.549 154.071)" stroke="#F2C395"/>
</g>
<g filter="url(#filter19_dd_4_108)">
<rect x="368.472" y="274.964" width="15.5214" height="5.00691" transform="rotate(60 368.472 274.964)" fill="#D9D9D9"/>
<rect x="368.472" y="274.964" width="15.5214" height="5.00691" transform="rotate(60 368.472 274.964)" fill="url(#paint18_linear_4_108)"/>
<rect x="368.289" y="275.647" width="14.5214" height="4.00691" transform="rotate(60 368.289 275.647)" stroke="#F2C395"/>
</g>
<g filter="url(#filter20_dd_4_108)">
<rect x="297.123" y="151.385" width="15.5214" height="5.00691" transform="rotate(60 297.123 151.385)" fill="#D9D9D9"/>
<rect x="297.123" y="151.385" width="15.5214" height="5.00691" transform="rotate(60 297.123 151.385)" fill="url(#paint19_linear_4_108)"/>
<rect x="296.94" y="152.068" width="14.5214" height="4.00691" transform="rotate(60 296.94 152.068)" stroke="#F2C395"/>
</g>
<g filter="url(#filter21_dd_4_108)">
<circle cx="334.49" cy="222.554" r="48.1932" fill="url(#paint20_linear_4_108)"/>
<circle cx="334.49" cy="222.554" r="46.1932" stroke="#F2C395" stroke-width="4"/>
</g>
<path d="M182 481.68V467.354L225.22 409H247.485L205.182 467.354L194.835 464.331H267V481.68H182ZM231.376 501V481.68L232.031 464.331V447.114H252.069V501H231.376Z" fill="url(#paint21_linear_4_108)"/>
<path d="M402 481.68V467.354L445.22 409H467.485L425.182 467.354L414.835 464.331H487V481.68H402ZM451.376 501V481.68L452.031 464.331V447.114H472.069V501H451.376Z" fill="url(#paint22_linear_4_108)"/>
<g filter="url(#filter22_dd_4_108)">
<rect x="291.038" y="410.23" width="86.4762" height="86.4762" rx="28" fill="url(#paint23_linear_4_108)"/>
<rect x="291.538" y="410.73" width="85.4762" height="85.4762" rx="27.5" stroke="white" stroke-opacity="0.6"/>
</g>
<g filter="url(#filter23_ii_4_108)">
<rect x="308.726" y="427.918" width="51.0996" height="51.0996" rx="25.5498" fill="url(#paint24_linear_4_108)"/>
</g>
<rect x="309.226" y="428.418" width="50.0996" height="50.0996" rx="25.0498" stroke="white" stroke-opacity="0.6"/>
<circle cx="324.449" cy="453.468" r="3.27561" fill="black"/>
<circle cx="344.102" cy="453.468" r="3.27561" fill="black"/>
<path d="M442.709 595.036L444.075 596.402C444.198 596.535 444.28 596.679 444.321 596.832C444.372 596.976 444.372 597.124 444.321 597.278C444.28 597.421 444.203 597.554 444.09 597.677L442.663 599.105C442.448 599.309 442.222 599.417 441.987 599.427C441.751 599.427 441.531 599.32 441.327 599.105L439.899 597.677C439.704 597.482 439.612 597.267 439.622 597.032C439.633 596.786 439.74 596.561 439.945 596.356L441.281 595.02C441.496 594.816 441.731 594.713 441.987 594.713C442.243 594.713 442.483 594.821 442.709 595.036ZM453.18 606.06L452.796 608.302L452.735 608.717L452.32 608.809C451.819 608.921 448.733 610.354 443.062 613.108C442.345 613.456 441.526 613.743 440.605 613.968C439.684 614.193 438.665 614.362 437.549 614.475C436.444 614.577 435.226 614.628 433.895 614.628H433.081C432.825 614.628 432.595 614.562 432.39 614.428C431.95 614.152 431.73 613.635 431.73 612.878V612.356C431.73 611.567 431.95 611.03 432.39 610.743C432.595 610.621 432.825 610.559 433.081 610.559H433.757C436.93 610.559 439.223 610.303 440.636 609.791C442.489 609.116 444.224 608.415 445.841 607.688C445.493 607.575 445.114 607.442 444.705 607.289C444.305 607.125 443.87 606.941 443.4 606.736C442.458 606.316 441.659 605.984 441.004 605.738C440.359 605.492 439.935 605.359 439.73 605.339C439.648 605.328 439.561 605.323 439.469 605.323C438.548 605.323 437.524 606.065 436.398 607.55L436.014 608.041L435.523 607.657L433.757 606.306L433.296 605.937L433.634 605.461C434.699 603.967 435.564 602.979 436.229 602.498C437.242 601.761 438.363 601.393 439.592 601.393C440.574 601.393 441.803 601.715 443.277 602.36C443.707 602.554 444.971 603.148 447.069 604.141C448.973 605.042 450.795 605.441 452.535 605.339L453.303 605.293L453.18 606.06Z" fill="#D9B083"/>
<path d="M433.235 610.559C433.317 610.559 433.394 610.564 433.465 610.575C433.547 610.585 433.624 610.605 433.696 610.636C433.767 610.656 433.839 610.687 433.911 610.728C434.361 611.004 434.586 611.547 434.586 612.356V612.878C434.586 613.635 434.371 614.152 433.941 614.428C433.736 614.562 433.501 614.628 433.235 614.628H431.669C431.485 615.56 431.183 616.445 430.763 617.284C430.353 618.124 429.836 618.907 429.212 619.634C427.359 621.783 424.544 622.863 420.767 622.873H420.736H420.306L420.168 622.459L419.355 620.325L419.078 619.542L419.907 619.495C422.149 619.362 423.93 618.886 425.251 618.067C426.581 617.249 427.487 616.097 427.968 614.613C427.733 614.613 427.457 614.613 427.139 614.613C426.832 614.613 426.479 614.613 426.08 614.613C423.807 614.613 422.205 613.999 421.274 612.77C420.639 611.941 420.327 610.928 420.337 609.73C420.347 608.01 420.762 606.47 421.581 605.108C422.656 603.297 424.15 602.385 426.064 602.375C426.781 602.375 427.441 602.503 428.045 602.759C428.659 603.005 429.207 603.373 429.688 603.865C430.169 604.346 430.579 604.934 430.916 605.63C431.459 606.746 431.781 608.389 431.884 610.559H433.235ZM425.926 606.245C425.65 606.255 425.399 606.342 425.174 606.506C424.949 606.669 424.734 606.946 424.529 607.335C424.14 608.062 423.945 608.706 423.945 609.269C423.945 609.433 423.956 609.576 423.976 609.699C424.007 609.822 424.043 609.925 424.084 610.006C424.135 610.088 424.196 610.16 424.268 610.221C424.544 610.467 425 610.61 425.634 610.651C426.249 610.702 427.134 610.708 428.291 610.667C428.281 610.114 428.245 609.623 428.183 609.193C428.122 608.752 428.04 608.374 427.938 608.056C427.835 607.729 427.712 607.452 427.569 607.227C427.436 606.992 427.283 606.802 427.108 606.659C426.934 606.516 426.75 606.413 426.556 606.352C426.371 606.28 426.162 606.245 425.926 606.245Z" fill="#D9B083"/>
<path d="M416.007 619.142C414.032 621.589 411.094 622.817 407.194 622.827H407.148H406.733L406.58 622.443L405.735 620.355L405.428 619.572L406.273 619.511C408.965 619.327 410.986 618.682 412.338 617.576C413.689 616.471 414.436 614.889 414.579 612.832C414.661 611.798 414.334 609.914 413.597 607.181L413.474 606.721L413.888 606.49L416.191 605.154L416.836 604.786L417.082 605.492C417.932 607.918 418.356 610.17 418.356 612.248C418.346 614.93 417.563 617.228 416.007 619.142Z" fill="#D9B083"/>
<path d="M401.236 597.324L402.603 598.69C402.797 598.885 402.895 599.1 402.895 599.335C402.905 599.56 402.808 599.765 402.603 599.949L401.175 601.377C400.98 601.592 400.76 601.7 400.515 601.7C400.279 601.7 400.059 601.597 399.854 601.393L398.426 599.965C398.222 599.76 398.13 599.54 398.15 599.304C398.171 599.069 398.283 598.849 398.488 598.644L399.824 597.308C399.957 597.165 400.105 597.068 400.269 597.017C400.443 596.965 400.612 596.97 400.776 597.032C400.939 597.083 401.093 597.18 401.236 597.324ZM396.308 597.324L397.674 598.69C397.869 598.885 397.966 599.1 397.966 599.335C397.976 599.56 397.879 599.765 397.674 599.949L396.246 601.377C396.052 601.592 395.832 601.7 395.586 601.7C395.35 601.7 395.13 601.597 394.926 601.393L393.498 599.965C393.293 599.76 393.201 599.54 393.221 599.304C393.242 599.069 393.354 598.849 393.559 598.644L394.895 597.308C395.11 597.093 395.345 596.991 395.601 597.001C395.857 597.001 396.093 597.109 396.308 597.324ZM398.764 593.408L400.146 594.775C400.269 594.908 400.351 595.051 400.392 595.205C400.433 595.348 400.433 595.496 400.392 595.65C400.361 595.793 400.279 595.931 400.146 596.065L398.718 597.493C398.524 597.687 398.304 597.784 398.058 597.784C397.822 597.784 397.597 597.687 397.382 597.493L395.954 596.065C395.76 595.85 395.668 595.624 395.678 595.389C395.698 595.154 395.811 594.933 396.016 594.729L397.352 593.393C397.495 593.25 397.648 593.157 397.812 593.117C397.976 593.065 398.14 593.065 398.304 593.117C398.467 593.168 398.621 593.265 398.764 593.408ZM384.331 610.559H385.667C386.342 610.559 386.89 610.472 387.31 610.298C387.74 610.124 388.062 609.868 388.277 609.53C388.502 609.182 388.641 608.732 388.692 608.179L388.953 605.308L389.014 604.755H389.567H391.379H391.916L391.993 605.277L392.377 608.164C392.489 609.034 392.745 609.658 393.144 610.037C393.544 610.416 394.122 610.605 394.88 610.605C395.289 610.605 395.627 610.534 395.893 610.39C396.169 610.247 396.395 610.001 396.569 609.653C396.743 609.295 396.855 608.819 396.906 608.225L397.198 605.308L397.244 604.755H397.812H399.624H400.146L400.223 605.277L400.622 608.225C400.745 609.116 400.98 609.75 401.328 610.129C401.687 610.498 402.183 610.677 402.818 610.667C403.197 610.667 403.493 610.605 403.708 610.482C403.934 610.36 404.113 610.17 404.246 609.914C404.614 609.187 404.681 608.072 404.445 606.567C404.323 605.758 404.123 604.755 403.847 603.558L403.724 603.02L404.261 602.836L406.672 602.068L407.24 601.884L407.439 602.452C407.89 603.721 408.171 605.175 408.284 606.813C408.304 607.161 408.315 607.493 408.315 607.811C408.325 608.886 408.217 609.843 407.992 610.682C407.767 611.521 407.429 612.233 406.979 612.816C406.528 613.4 405.955 613.845 405.259 614.152C404.563 614.459 403.765 614.613 402.864 614.613C401.093 614.633 399.711 614.045 398.718 612.847C397.797 614.034 396.497 614.628 394.818 614.628C392.853 614.618 391.358 614.039 390.335 612.893C389.188 614.05 387.622 614.628 385.636 614.628H384.331C384.075 614.628 383.845 614.562 383.64 614.428C383.2 614.152 382.98 613.635 382.98 612.878V612.356C382.98 611.567 383.2 611.03 383.64 610.743C383.845 610.621 384.075 610.559 384.331 610.559Z" fill="#D9B083"/>
<path d="M384.5 614.628H383.84C382.263 614.628 380.851 614.05 379.602 612.893C378.353 614.05 376.807 614.628 374.965 614.628H372.892C372.646 614.628 372.426 614.567 372.232 614.444C371.792 614.178 371.572 613.656 371.572 612.878V612.356C371.572 611.547 371.792 611.004 372.232 610.728C372.426 610.615 372.646 610.559 372.892 610.559H375.026C375.415 610.559 375.758 610.534 376.055 610.482C376.362 610.421 376.618 610.334 376.823 610.221C377.038 610.109 377.212 609.965 377.345 609.791C377.478 609.607 377.575 609.402 377.637 609.177C377.708 608.942 377.744 608.676 377.744 608.379L377.821 604.924L377.836 604.417L378.327 604.325L380.692 603.926L381.383 603.803L381.414 604.51L381.552 608.363C381.572 609.141 381.762 609.704 382.12 610.052C382.489 610.39 383.077 610.559 383.886 610.559H384.515C384.628 610.559 384.741 610.575 384.853 610.605C384.966 610.626 385.073 610.672 385.176 610.743C385.431 610.897 385.605 611.112 385.698 611.388C385.8 611.665 385.851 611.987 385.851 612.356V612.878C385.851 613.635 385.636 614.152 385.206 614.428C385.002 614.562 384.766 614.628 384.5 614.628ZM380.846 617.622L382.197 618.989C382.391 619.183 382.489 619.393 382.489 619.618C382.499 619.854 382.402 620.069 382.197 620.263L380.769 621.691C380.574 621.896 380.354 621.998 380.109 621.998C379.873 622.008 379.658 621.906 379.464 621.691L378.036 620.263C377.903 620.14 377.816 620.002 377.775 619.849C377.734 619.695 377.739 619.542 377.79 619.388C377.841 619.234 377.939 619.086 378.082 618.943L379.402 617.607C379.627 617.402 379.868 617.3 380.124 617.3C380.38 617.3 380.62 617.407 380.846 617.622ZM375.917 617.622L377.268 618.989C377.463 619.183 377.56 619.393 377.56 619.618C377.57 619.854 377.473 620.069 377.268 620.263L375.84 621.691C375.646 621.896 375.425 621.998 375.18 621.998C374.944 622.008 374.729 621.906 374.535 621.691L373.107 620.263C372.902 620.069 372.81 619.849 372.831 619.603C372.841 619.368 372.948 619.147 373.153 618.943L374.474 617.607C374.699 617.402 374.939 617.3 375.195 617.3C375.451 617.3 375.692 617.407 375.917 617.622Z" fill="#D9B083"/>
<path d="M373.107 610.559C373.353 610.559 373.573 610.621 373.767 610.743C374.207 611.03 374.427 611.567 374.427 612.356V612.878C374.427 613.041 374.417 613.195 374.397 613.338C374.386 613.471 374.356 613.61 374.305 613.753C374.264 613.886 374.197 614.014 374.105 614.137C374.013 614.249 373.905 614.347 373.783 614.429C373.578 614.562 373.342 614.628 373.076 614.628H372.6C371.802 614.628 371.06 614.48 370.374 614.183C369.688 613.876 369.069 613.43 368.516 612.847C367.062 614.26 364.677 614.966 361.361 614.966C359.774 614.966 358.116 614.664 356.386 614.06L355.987 613.922V613.492V610.605V609.669L356.831 610.037C357.466 610.303 358.147 610.508 358.873 610.651C359.6 610.784 360.383 610.851 361.223 610.851C363.536 610.851 365.056 610.488 365.783 609.761C365.885 609.658 365.936 609.551 365.936 609.438C365.936 609.244 365.875 609.024 365.752 608.778L361.944 601.024L361.699 600.533L362.159 600.226L364.447 598.767L365.046 598.383L365.338 599.013L369.36 607.611C370.251 609.525 371.351 610.503 372.662 610.544L373.107 610.559Z" fill="#D9B083"/>
<path d="M341.369 592.994L344.026 591.842L344.885 591.474V592.41V613.983V614.597H344.271H342.275H341.692L341.661 614.014L341.001 593.577L340.985 593.163L341.369 592.994Z" fill="white"/>
<path d="M334.752 595.297L336.118 596.663C336.241 596.796 336.323 596.94 336.364 597.093C336.415 597.237 336.415 597.385 336.364 597.539C336.323 597.682 336.246 597.815 336.133 597.938L334.705 599.366C334.491 599.571 334.265 599.678 334.03 599.688C333.794 599.688 333.574 599.581 333.37 599.366L331.942 597.938C331.747 597.743 331.655 597.528 331.665 597.293C331.676 597.047 331.783 596.822 331.988 596.617L333.324 595.282C333.539 595.077 333.774 594.974 334.03 594.974C334.286 594.974 334.526 595.082 334.752 595.297ZM336.855 613.246C336.466 613.574 335.985 613.84 335.412 614.045C334.839 614.249 334.189 614.398 333.462 614.49C332.745 614.582 331.921 614.628 330.99 614.628H329.654C329.367 614.628 329.122 614.556 328.917 614.413C328.487 614.127 328.272 613.615 328.272 612.878V612.356C328.272 611.567 328.492 611.03 328.932 610.743C329.137 610.621 329.367 610.559 329.623 610.559H331.051C331.972 610.559 332.556 610.539 332.802 610.498C333.764 610.365 334.352 610.042 334.567 609.53C334.752 609.09 334.844 608.466 334.844 607.657C334.844 607.156 334.823 606.649 334.782 606.137C334.741 605.615 334.675 605.093 334.583 604.571C334.501 604.049 334.393 603.522 334.26 602.989L334.107 602.375L334.721 602.237L337.039 601.715L337.577 601.592L337.761 602.114C337.945 602.667 338.099 603.235 338.222 603.819C338.355 604.392 338.452 604.986 338.513 605.6C338.575 606.204 338.606 606.828 338.606 607.473C338.606 610.298 338.022 612.223 336.855 613.246Z" fill="white"/>
<path d="M329.807 610.559C330.053 610.559 330.273 610.621 330.468 610.743C330.908 611.03 331.128 611.567 331.128 612.356V612.878C331.128 613.041 331.118 613.195 331.097 613.338C331.087 613.471 331.056 613.61 331.005 613.753C330.964 613.886 330.898 614.014 330.805 614.137C330.713 614.249 330.606 614.347 330.483 614.429C330.278 614.562 330.043 614.628 329.777 614.628H329.301C328.502 614.628 327.76 614.48 327.074 614.183C326.389 613.876 325.769 613.43 325.216 612.847C323.763 614.26 321.378 614.966 318.061 614.966C316.475 614.966 314.816 614.664 313.086 614.06L312.687 613.922V613.492V610.605V609.669L313.532 610.037C314.166 610.303 314.847 610.508 315.574 610.651C316.301 610.784 317.084 610.851 317.923 610.851C320.237 610.851 321.757 610.488 322.483 609.761C322.586 609.658 322.637 609.551 322.637 609.438C322.637 609.244 322.576 609.024 322.453 608.778L318.645 601.024L318.399 600.533L318.86 600.226L321.148 598.767L321.746 598.383L322.038 599.013L326.061 607.611C326.952 609.525 328.052 610.503 329.362 610.544L329.807 610.559Z" fill="white"/>
<path d="M308.618 619.142C306.643 621.589 303.705 622.817 299.805 622.827H299.759H299.344L299.191 622.443L298.346 620.355L298.039 619.572L298.884 619.511C301.576 619.327 303.597 618.682 304.949 617.576C306.3 616.471 307.047 614.889 307.19 612.832C307.272 611.798 306.945 609.914 306.208 607.181L306.085 606.721L306.499 606.49L308.803 605.154L309.447 604.786L309.693 605.492C310.543 607.918 310.967 610.17 310.967 612.248C310.957 614.93 310.174 617.228 308.618 619.142Z" fill="white"/>
<path d="M288.888 606.06L288.504 608.302L288.443 608.717L288.028 608.809C287.526 608.921 284.44 610.354 278.769 613.108C278.053 613.456 277.234 613.743 276.313 613.968C275.391 614.193 274.373 614.362 273.257 614.475C272.151 614.577 270.933 614.628 269.603 614.628H268.789C268.533 614.628 268.303 614.562 268.098 614.428C267.658 614.152 267.438 613.635 267.438 612.878V612.356C267.438 611.567 267.658 611.03 268.098 610.743C268.303 610.621 268.533 610.559 268.789 610.559H269.464C272.638 610.559 274.931 610.303 276.343 609.791C278.196 609.116 279.931 608.415 281.548 607.688C281.2 607.575 280.822 607.442 280.412 607.289C280.013 607.125 279.578 606.941 279.107 606.736C278.165 606.316 277.367 605.984 276.712 605.738C276.067 605.492 275.642 605.359 275.437 605.339C275.355 605.328 275.268 605.323 275.176 605.323C274.255 605.323 273.231 606.065 272.105 607.55L271.722 608.041L271.23 607.657L269.464 606.306L269.004 605.937L269.342 605.462C270.406 603.967 271.271 602.979 271.937 602.498C272.95 601.761 274.071 601.393 275.299 601.393C276.282 601.393 277.51 601.715 278.984 602.36C279.414 602.554 280.678 603.148 282.777 604.141C284.681 605.042 286.503 605.441 288.243 605.339L289.011 605.293L288.888 606.06ZM282.07 617.008L283.422 618.359C283.626 618.554 283.729 618.769 283.729 619.004C283.729 619.24 283.631 619.449 283.437 619.634L282.009 621.062C281.804 621.266 281.584 621.369 281.349 621.369C281.113 621.369 280.893 621.271 280.689 621.077L279.261 619.649C279.128 619.516 279.041 619.368 279 619.204C278.959 619.05 278.964 618.897 279.015 618.743C279.076 618.59 279.174 618.446 279.307 618.313L280.627 616.977C280.852 616.762 281.093 616.655 281.349 616.655C281.605 616.665 281.845 616.783 282.07 617.008ZM277.142 617.008L278.493 618.359C278.626 618.492 278.713 618.63 278.754 618.774C278.805 618.927 278.805 619.076 278.754 619.219C278.713 619.373 278.631 619.511 278.508 619.634L277.08 621.062C276.876 621.266 276.655 621.369 276.42 621.369C276.185 621.369 275.965 621.271 275.76 621.077L274.332 619.649C274.127 619.434 274.03 619.209 274.04 618.973C274.061 618.738 274.173 618.518 274.378 618.313L275.698 616.977C275.924 616.762 276.164 616.655 276.42 616.655C276.676 616.665 276.916 616.783 277.142 617.008ZM279.598 620.616L280.965 621.998C281.159 622.182 281.257 622.387 281.257 622.612C281.257 622.848 281.165 623.063 280.98 623.257L279.552 624.685C279.419 624.818 279.276 624.91 279.122 624.962C278.969 625.013 278.81 625.013 278.646 624.962C278.493 624.921 278.35 624.829 278.216 624.685L276.789 623.257C276.655 623.124 276.568 622.981 276.528 622.827C276.497 622.674 276.507 622.52 276.558 622.367C276.609 622.213 276.702 622.07 276.835 621.937L278.186 620.601C278.401 620.396 278.636 620.294 278.892 620.294C279.148 620.304 279.383 620.412 279.598 620.616Z" fill="white"/>
<path d="M268.927 610.559C269.173 610.559 269.398 610.615 269.603 610.728C270.053 611.004 270.278 611.547 270.278 612.356V612.878C270.278 613.625 270.063 614.142 269.633 614.428C269.429 614.562 269.193 614.628 268.927 614.628H268.313C265.999 614.628 264.341 613.855 263.338 612.31C262.662 611.255 262.289 609.623 262.217 607.411L261.772 593.608L261.757 593.193L262.14 593.024L264.797 591.857L265.657 591.474V592.426V607.181C265.657 608.389 265.866 609.254 266.286 609.776C266.716 610.298 267.386 610.559 268.298 610.559H268.927Z" fill="white"/>
<path d="M253.112 604.847C251.556 606.362 250.783 607.775 250.793 609.085C250.793 609.607 250.973 609.996 251.331 610.252C251.689 610.498 252.324 610.621 253.235 610.621C254.177 610.621 254.832 610.503 255.2 610.267C255.569 610.032 255.753 609.684 255.753 609.223C255.773 607.903 254.893 606.444 253.112 604.847ZM253.25 614.567C251.459 614.567 250.015 614.142 248.92 613.292C247.733 612.351 247.129 610.974 247.108 609.162C247.088 607.125 248.178 604.868 250.379 602.391L250.302 602.314L249.872 601.945L250.195 601.485L251.745 599.335L252.114 598.813L252.621 599.212C257.135 602.795 259.407 606.106 259.438 609.147C259.448 610.037 259.284 610.851 258.947 611.588C258.609 612.315 258.097 612.939 257.411 613.461C256.429 614.208 255.042 614.577 253.25 614.567Z" fill="white"/>
<path d="M229.543 597.324L230.909 598.69C231.104 598.885 231.201 599.1 231.201 599.335C231.211 599.56 231.114 599.765 230.909 599.949L229.482 601.377C229.287 601.592 229.067 601.7 228.821 601.7C228.586 601.7 228.366 601.597 228.161 601.393L226.733 599.965C226.528 599.76 226.436 599.54 226.457 599.304C226.477 599.069 226.59 598.849 226.794 598.644L228.13 597.308C228.263 597.165 228.412 597.068 228.576 597.017C228.75 596.965 228.919 596.97 229.082 597.032C229.246 597.083 229.4 597.18 229.543 597.324ZM224.614 597.324L225.981 598.69C226.175 598.885 226.272 599.1 226.272 599.335C226.283 599.56 226.185 599.765 225.981 599.949L224.553 601.377C224.358 601.592 224.138 601.7 223.892 601.7C223.657 601.7 223.437 601.597 223.232 601.393L221.804 599.965C221.6 599.76 221.507 599.54 221.528 599.304C221.548 599.069 221.661 598.849 221.866 598.644L223.202 597.308C223.417 597.093 223.652 596.991 223.908 597.001C224.164 597.001 224.399 597.109 224.614 597.324ZM227.071 593.408L228.453 594.775C228.576 594.908 228.657 595.051 228.698 595.205C228.739 595.348 228.739 595.496 228.698 595.65C228.668 595.793 228.586 595.931 228.453 596.065L227.025 597.493C226.83 597.687 226.61 597.784 226.365 597.784C226.129 597.784 225.904 597.687 225.689 597.493L224.261 596.065C224.067 595.85 223.974 595.624 223.985 595.389C224.005 595.154 224.118 594.933 224.322 594.729L225.658 593.393C225.802 593.25 225.955 593.157 226.119 593.117C226.283 593.065 226.446 593.065 226.61 593.117C226.774 593.168 226.928 593.265 227.071 593.408ZM212.638 610.559H213.974C214.649 610.559 215.197 610.472 215.616 610.298C216.046 610.124 216.369 609.868 216.584 609.53C216.809 609.182 216.947 608.732 216.998 608.179L217.259 605.308L217.321 604.755H217.874H219.685H220.223L220.3 605.277L220.683 608.164C220.796 609.034 221.052 609.658 221.451 610.037C221.85 610.416 222.429 610.605 223.186 610.605C223.596 610.605 223.933 610.534 224.2 610.39C224.476 610.247 224.701 610.001 224.875 609.653C225.049 609.295 225.162 608.819 225.213 608.225L225.505 605.308L225.551 604.755H226.119H227.931H228.453L228.53 605.277L228.929 608.225C229.052 609.116 229.287 609.75 229.635 610.129C229.993 610.498 230.49 610.677 231.124 610.667C231.503 610.667 231.8 610.605 232.015 610.482C232.24 610.36 232.419 610.17 232.552 609.914C232.921 609.187 232.987 608.072 232.752 606.567C232.629 605.758 232.43 604.755 232.153 603.558L232.03 603.02L232.568 602.836L234.978 602.068L235.547 601.884L235.746 602.452C236.197 603.721 236.478 605.175 236.591 606.813C236.611 607.161 236.621 607.493 236.621 607.811C236.632 608.886 236.524 609.843 236.299 610.682C236.074 611.521 235.736 612.233 235.285 612.816C234.835 613.4 234.262 613.845 233.566 614.152C232.87 614.459 232.071 614.613 231.17 614.613C229.4 614.633 228.018 614.045 227.025 612.847C226.104 614.034 224.804 614.628 223.125 614.628C221.159 614.618 219.665 614.039 218.641 612.893C217.495 614.05 215.929 614.628 213.943 614.628H212.638C212.382 614.628 212.151 614.562 211.947 614.428C211.507 614.152 211.286 613.635 211.286 612.878V612.356C211.286 611.567 211.507 611.03 211.947 610.743C212.151 610.621 212.382 610.559 212.638 610.559Z" fill="white"/>
<path d="M212.837 610.559C213.083 610.559 213.303 610.621 213.498 610.743C213.938 611.03 214.158 611.567 214.158 612.356V612.878C214.158 613.041 214.148 613.195 214.127 613.338C214.117 613.471 214.086 613.61 214.035 613.753C213.994 613.886 213.927 614.014 213.835 614.137C213.743 614.249 213.636 614.347 213.513 614.429C213.308 614.562 213.073 614.628 212.807 614.628H212.331C211.532 614.628 210.79 614.48 210.104 614.183C209.418 613.876 208.799 613.43 208.246 612.847C206.793 614.26 204.408 614.966 201.091 614.966C199.505 614.966 197.846 614.664 196.116 614.06L195.717 613.922V613.492V610.605V609.669L196.562 610.037C197.196 610.303 197.877 610.508 198.604 610.651C199.331 610.784 200.114 610.851 200.953 610.851C203.266 610.851 204.786 610.488 205.513 609.761C205.616 609.658 205.667 609.551 205.667 609.438C205.667 609.244 205.605 609.024 205.483 608.778L201.675 601.024L201.429 600.533L201.89 600.226L204.177 598.767L204.776 598.383L205.068 599.013L209.091 607.611C209.981 609.525 211.082 610.503 212.392 610.544L212.837 610.559Z" fill="white"/>
<path d="M450.893 564.767C450.504 565.095 450.022 565.361 449.449 565.566C448.876 565.77 448.226 565.919 447.499 566.011C446.783 566.103 445.959 566.149 445.027 566.149H443.691C443.405 566.149 443.159 566.077 442.954 565.934C442.524 565.647 442.309 565.136 442.309 564.399V563.877C442.309 563.088 442.529 562.551 442.97 562.264C443.174 562.142 443.405 562.08 443.661 562.08H445.089C446.01 562.08 446.593 562.06 446.839 562.019C447.801 561.886 448.39 561.563 448.605 561.051C448.789 560.611 448.881 559.987 448.881 559.178C448.881 558.677 448.861 558.17 448.82 557.658C448.779 557.136 448.712 556.614 448.62 556.092C448.538 555.57 448.431 555.043 448.298 554.51L448.144 553.896L448.758 553.758L451.077 553.236L451.614 553.113L451.798 553.635C451.983 554.188 452.136 554.756 452.259 555.339C452.392 555.913 452.489 556.506 452.551 557.121C452.612 557.725 452.643 558.349 452.643 558.994C452.643 561.819 452.059 563.743 450.893 564.767ZM448.006 569.143L449.372 570.51C449.495 570.643 449.577 570.781 449.618 570.924C449.669 571.078 449.669 571.226 449.618 571.37C449.577 571.523 449.5 571.661 449.388 571.784L447.96 573.212C447.745 573.417 447.52 573.519 447.284 573.519C447.049 573.529 446.829 573.427 446.624 573.212L445.196 571.784C445.002 571.59 444.909 571.37 444.92 571.124C444.93 570.888 445.037 570.668 445.242 570.464L446.578 569.128C446.793 568.923 447.028 568.821 447.284 568.821C447.54 568.821 447.781 568.928 448.006 569.143Z" fill="white"/>
<path d="M443.799 562.08C443.86 562.08 443.978 562.09 444.152 562.111C444.264 562.142 444.372 562.188 444.474 562.249C444.925 562.536 445.15 563.078 445.15 563.877V564.399C445.15 564.716 445.104 565.023 445.012 565.32C444.92 565.586 444.751 565.796 444.505 565.949C444.3 566.082 444.06 566.149 443.783 566.149L441.879 566.134L438.624 566.149C438.338 566.149 438.194 566.221 438.194 566.364C438.194 566.507 438.358 566.589 438.686 566.61L440.037 566.671C441.92 566.763 442.867 567.644 442.877 569.312C442.877 571.062 442.079 572.501 440.482 573.627C438.496 575.019 435.763 575.72 432.283 575.73C428.946 575.73 426.397 574.993 424.636 573.519C422.773 571.943 421.837 569.834 421.827 567.193C421.816 564.941 422.43 562.5 423.669 559.869L423.915 559.332L424.452 559.562L426.709 560.483L427.293 560.729L427.047 561.297C426.126 563.385 425.645 565.294 425.604 567.024C425.563 568.59 426.203 569.824 427.523 570.725C428.598 571.451 430.225 571.81 432.406 571.799C434.381 571.789 436.024 571.533 437.335 571.032C437.918 570.807 438.379 570.571 438.716 570.325C439.31 569.896 439.412 569.675 439.024 569.665L437.979 569.634C436.751 569.594 435.789 569.276 435.093 568.683C434.407 568.099 434.059 567.275 434.049 566.21C434.049 564.859 434.484 563.831 435.354 563.124C436.234 562.418 437.468 562.065 439.054 562.065L443.799 562.08Z" fill="white"/>
<path d="M406.733 562.08L410.71 562.065C411.437 562.065 412.036 561.993 412.506 561.85C412.988 561.706 413.341 561.512 413.566 561.266C413.801 561.021 413.96 560.719 414.042 560.36C414.103 560.053 414.067 559.731 413.934 559.393C413.812 559.045 413.566 558.666 413.197 558.257L407.317 551.747L407.178 551.578L407.163 551.363C407.112 550.472 407.178 549.633 407.363 548.845C407.516 548.149 407.931 547.632 408.606 547.294L419.938 541.536L420.829 541.091V542.089V544.914V545.282L420.491 545.467L411.125 550.288L415.93 555.601C417.425 557.259 417.952 559.147 417.512 561.266C417.174 562.884 416.376 564.102 415.117 564.921C413.868 565.74 412.225 566.149 410.188 566.149H406.733C406.477 566.149 406.247 566.082 406.042 565.949C405.602 565.673 405.382 565.156 405.382 564.399V563.877C405.382 563.088 405.602 562.551 406.042 562.264C406.247 562.142 406.477 562.08 406.733 562.08ZM420.706 539.724L409.113 545.728L408.867 545.835V545.574V543.563V543.455L408.96 543.409L420.537 537.406L420.782 537.298V537.559V539.586V539.678L420.706 539.724Z" fill="white"/>
<path d="M406.887 562.08C407.132 562.08 407.358 562.136 407.562 562.249C408.013 562.525 408.238 563.068 408.238 563.877V564.399C408.238 565.146 408.023 565.663 407.593 565.949C407.388 566.082 407.153 566.149 406.887 566.149H406.273C403.959 566.149 402.301 565.376 401.298 563.83C400.622 562.776 400.248 561.143 400.177 558.932L399.732 545.129L399.716 544.714L400.1 544.545L402.756 543.378L403.616 542.995V543.946V558.702C403.616 559.91 403.826 560.775 404.246 561.297C404.676 561.819 405.346 562.08 406.257 562.08H406.887Z" fill="white"/>
<path d="M391.072 556.368C389.516 557.883 388.743 559.296 388.753 560.606C388.753 561.128 388.932 561.517 389.291 561.773C389.649 562.019 390.283 562.142 391.194 562.142C392.136 562.142 392.791 562.024 393.16 561.788C393.528 561.553 393.713 561.205 393.713 560.744C393.733 559.424 392.853 557.965 391.072 556.368ZM391.21 566.088C389.418 566.088 387.975 565.663 386.88 564.813C385.692 563.871 385.089 562.495 385.068 560.683C385.048 558.646 386.138 556.389 388.339 553.912L388.262 553.835L387.832 553.466L388.154 553.006L389.705 550.856L390.074 550.334L390.58 550.733C395.094 554.316 397.367 557.627 397.398 560.668C397.408 561.558 397.244 562.372 396.906 563.109C396.569 563.836 396.057 564.46 395.371 564.982C394.388 565.729 393.001 566.098 391.21 566.088Z" fill="white"/>
<path d="M367.503 548.845L368.869 550.211C369.064 550.406 369.161 550.621 369.161 550.856C369.171 551.081 369.074 551.286 368.869 551.47L367.441 552.898C367.247 553.113 367.027 553.221 366.781 553.221C366.545 553.221 366.325 553.118 366.121 552.913L364.693 551.486C364.488 551.281 364.396 551.061 364.416 550.825C364.437 550.59 364.549 550.37 364.754 550.165L366.09 548.829C366.223 548.686 366.371 548.589 366.535 548.537C366.709 548.486 366.878 548.491 367.042 548.553C367.206 548.604 367.359 548.701 367.503 548.845ZM362.574 548.845L363.94 550.211C364.135 550.406 364.232 550.621 364.232 550.856C364.242 551.081 364.145 551.286 363.94 551.47L362.512 552.898C362.318 553.113 362.098 553.221 361.852 553.221C361.617 553.221 361.397 553.118 361.192 552.913L359.764 551.486C359.559 551.281 359.467 551.061 359.488 550.825C359.508 550.59 359.621 550.37 359.825 550.165L361.161 548.829C361.376 548.614 361.612 548.512 361.867 548.522C362.123 548.522 362.359 548.63 362.574 548.845ZM365.03 544.929L366.412 546.296C366.535 546.429 366.617 546.572 366.658 546.726C366.699 546.869 366.699 547.017 366.658 547.171C366.627 547.314 366.545 547.452 366.412 547.585L364.984 549.013C364.79 549.208 364.57 549.305 364.324 549.305C364.089 549.305 363.864 549.208 363.649 549.013L362.221 547.585C362.026 547.371 361.934 547.145 361.944 546.91C361.965 546.674 362.077 546.454 362.282 546.25L363.618 544.914C363.761 544.771 363.915 544.678 364.078 544.637C364.242 544.586 364.406 544.586 364.57 544.637C364.734 544.689 364.887 544.786 365.03 544.929ZM350.597 562.08H351.933C352.609 562.08 353.156 561.993 353.576 561.819C354.006 561.645 354.328 561.389 354.543 561.051C354.769 560.703 354.907 560.253 354.958 559.7L355.219 556.829L355.28 556.276H355.833H357.645H358.182L358.259 556.798L358.643 559.685C358.756 560.555 359.012 561.179 359.411 561.558C359.81 561.937 360.388 562.126 361.146 562.126C361.555 562.126 361.893 562.054 362.159 561.911C362.436 561.768 362.661 561.522 362.835 561.174C363.009 560.816 363.121 560.34 363.173 559.746L363.464 556.829L363.51 556.276H364.078H365.89H366.412L366.489 556.798L366.888 559.746C367.011 560.637 367.247 561.271 367.595 561.65C367.953 562.019 368.449 562.198 369.084 562.188C369.463 562.188 369.76 562.126 369.975 562.003C370.2 561.88 370.379 561.691 370.512 561.435C370.88 560.708 370.947 559.593 370.712 558.088C370.589 557.279 370.389 556.276 370.113 555.078L369.99 554.541L370.527 554.357L372.938 553.589L373.506 553.405L373.706 553.973C374.156 555.242 374.438 556.696 374.55 558.334C374.571 558.682 374.581 559.014 374.581 559.332C374.591 560.406 374.484 561.364 374.258 562.203C374.033 563.042 373.695 563.754 373.245 564.337C372.795 564.921 372.221 565.366 371.525 565.673C370.829 565.98 370.031 566.134 369.13 566.134C367.359 566.154 365.977 565.566 364.984 564.368C364.063 565.555 362.763 566.149 361.084 566.149C359.119 566.139 357.624 565.56 356.601 564.414C355.454 565.571 353.888 566.149 351.902 566.149H350.597C350.341 566.149 350.111 566.082 349.906 565.949C349.466 565.673 349.246 565.156 349.246 564.399V563.877C349.246 563.088 349.466 562.551 349.906 562.264C350.111 562.142 350.341 562.08 350.597 562.08Z" fill="white"/>
<path d="M350.782 566.149H346.621C346.365 566.149 346.134 566.083 345.93 565.949C345.489 565.673 345.269 565.156 345.269 564.399V563.877C345.269 563.078 345.495 562.541 345.945 562.264C346.139 562.142 346.365 562.08 346.621 562.08H350.797C350.91 562.08 351.022 562.095 351.135 562.126C351.247 562.147 351.355 562.193 351.457 562.264C351.59 562.346 351.703 562.449 351.795 562.571C351.887 562.684 351.959 562.817 352.01 562.971C352.061 563.114 352.092 563.257 352.102 563.401C352.123 563.544 352.133 563.703 352.133 563.877V564.399C352.133 564.747 352.087 565.054 351.995 565.32C351.902 565.586 351.734 565.796 351.488 565.949C351.416 565.99 351.339 566.026 351.258 566.057C351.176 566.088 351.094 566.113 351.012 566.134C350.94 566.144 350.863 566.149 350.782 566.149Z" fill="white"/>
<path d="M346.805 562.08C347.05 562.08 347.271 562.142 347.465 562.264C347.905 562.551 348.125 563.088 348.125 563.877V564.399C348.125 564.562 348.115 564.716 348.095 564.859C348.084 564.992 348.054 565.131 348.002 565.274C347.961 565.407 347.895 565.535 347.803 565.658C347.711 565.77 347.603 565.868 347.48 565.949C347.276 566.083 347.04 566.149 346.774 566.149H346.298C345.5 566.149 344.758 566.001 344.072 565.704C343.386 565.397 342.767 564.951 342.214 564.368C340.76 565.781 338.375 566.487 335.059 566.487C333.472 566.487 331.814 566.185 330.084 565.581L329.685 565.443V565.013V562.126V561.19L330.529 561.558C331.164 561.824 331.844 562.029 332.571 562.172C333.298 562.305 334.081 562.372 334.92 562.372C337.234 562.372 338.754 562.008 339.481 561.282C339.583 561.179 339.634 561.072 339.634 560.959C339.634 560.765 339.573 560.545 339.45 560.299L335.642 552.545L335.396 552.054L335.857 551.747L338.145 550.288L338.744 549.904L339.035 550.534L343.058 559.132C343.949 561.046 345.049 562.024 346.359 562.065L346.805 562.08Z" fill="white"/>
<path d="M317.432 564.767C317.043 565.095 316.562 565.361 315.988 565.566C315.415 565.77 314.765 565.919 314.038 566.011C313.322 566.103 312.498 566.149 311.566 566.149H310.23C309.944 566.149 309.698 566.077 309.493 565.934C309.064 565.647 308.849 565.136 308.849 564.399V563.877C308.849 563.088 309.069 562.551 309.509 562.264C309.714 562.142 309.944 562.08 310.2 562.08H311.628C312.549 562.08 313.132 562.06 313.378 562.019C314.34 561.886 314.929 561.563 315.144 561.051C315.328 560.611 315.42 559.987 315.42 559.178C315.42 558.677 315.4 558.17 315.359 557.658C315.318 557.136 315.251 556.614 315.159 556.092C315.077 555.57 314.97 555.043 314.837 554.51L314.683 553.896L315.297 553.758L317.616 553.236L318.153 553.113L318.338 553.635C318.522 554.188 318.675 554.756 318.798 555.339C318.931 555.913 319.029 556.506 319.09 557.121C319.151 557.725 319.182 558.349 319.182 558.994C319.182 561.819 318.599 563.743 317.432 564.767ZM314.545 569.143L315.912 570.51C316.034 570.643 316.116 570.781 316.157 570.924C316.208 571.078 316.208 571.226 316.157 571.37C316.116 571.523 316.04 571.661 315.927 571.784L314.499 573.212C314.284 573.417 314.059 573.519 313.823 573.519C313.588 573.529 313.368 573.427 313.163 573.212L311.735 571.784C311.541 571.59 311.449 571.37 311.459 571.124C311.469 570.888 311.577 570.668 311.781 570.464L313.117 569.128C313.332 568.923 313.568 568.821 313.823 568.821C314.079 568.821 314.32 568.928 314.545 569.143Z" fill="white"/>
<path d="M310.338 562.08C310.399 562.08 310.517 562.09 310.691 562.111C310.804 562.142 310.911 562.188 311.014 562.249C311.464 562.536 311.689 563.078 311.689 563.877V564.399C311.689 564.716 311.643 565.023 311.551 565.32C311.459 565.586 311.29 565.796 311.044 565.949C310.84 566.082 310.599 566.149 310.323 566.149L308.419 566.134L305.164 566.149C304.877 566.149 304.734 566.221 304.734 566.364C304.734 566.507 304.897 566.589 305.225 566.61L306.576 566.671C308.46 566.763 309.406 567.644 309.417 569.312C309.417 571.062 308.618 572.501 307.021 573.627C305.036 575.019 302.302 575.72 298.822 575.73C295.485 575.73 292.936 574.993 291.176 573.519C289.313 571.943 288.376 569.834 288.366 567.193C288.356 564.941 288.97 562.5 290.208 559.869L290.454 559.332L290.991 559.562L293.248 560.483L293.832 560.729L293.586 561.297C292.665 563.385 292.184 565.294 292.143 567.024C292.102 568.59 292.742 569.824 294.062 570.725C295.137 571.451 296.765 571.81 298.945 571.799C300.921 571.789 302.564 571.533 303.874 571.032C304.457 570.807 304.918 570.571 305.256 570.325C305.849 569.896 305.952 569.675 305.563 569.665L304.519 569.634C303.29 569.594 302.328 569.276 301.632 568.683C300.946 568.099 300.598 567.275 300.588 566.21C300.588 564.859 301.023 563.831 301.893 563.124C302.773 562.418 304.007 562.065 305.593 562.065L310.338 562.08Z" fill="white"/>
<path d="M273.272 562.08L277.249 562.065C277.976 562.065 278.575 561.993 279.046 561.85C279.527 561.706 279.88 561.512 280.105 561.266C280.341 561.021 280.499 560.719 280.581 560.36C280.643 560.053 280.607 559.731 280.474 559.393C280.351 559.045 280.105 558.666 279.737 558.257L273.856 551.747L273.718 551.578L273.702 551.363C273.651 550.472 273.718 549.633 273.902 548.845C274.055 548.149 274.47 547.632 275.146 547.294L286.477 541.536L287.368 541.091V542.089V544.914V545.282L287.03 545.467L277.664 550.288L282.47 555.601C283.964 557.259 284.491 559.147 284.051 561.266C283.713 562.884 282.915 564.102 281.656 564.921C280.407 565.74 278.764 566.149 276.727 566.149H273.272C273.016 566.149 272.786 566.082 272.581 565.949C272.141 565.673 271.921 565.156 271.921 564.399V563.877C271.921 563.088 272.141 562.551 272.581 562.264C272.786 562.142 273.016 562.08 273.272 562.08ZM287.245 539.724L275.652 545.728L275.407 545.835V545.574V543.563V543.455L275.499 543.409L287.076 537.406L287.322 537.298V537.559V539.586V539.678L287.245 539.724Z" fill="white"/>
<path d="M273.426 562.08C273.672 562.08 273.897 562.136 274.101 562.249C274.552 562.525 274.777 563.068 274.777 563.877V564.399C274.777 565.146 274.562 565.663 274.132 565.949C273.927 566.082 273.692 566.149 273.426 566.149H272.812C270.498 566.149 268.84 565.376 267.837 563.83C267.161 562.776 266.788 561.143 266.716 558.932L266.271 545.129L266.255 544.714L266.639 544.545L269.296 543.378L270.155 542.995V543.946V558.702C270.155 559.91 270.365 560.775 270.785 561.297C271.215 561.819 271.885 562.08 272.796 562.08H273.426Z" fill="white"/>
<path d="M257.611 556.368C256.055 557.883 255.282 559.296 255.292 560.606C255.292 561.128 255.471 561.517 255.83 561.773C256.188 562.019 256.823 562.142 257.734 562.142C258.675 562.142 259.33 562.024 259.699 561.788C260.068 561.553 260.252 561.205 260.252 560.744C260.272 559.424 259.392 557.965 257.611 556.368ZM257.749 566.088C255.958 566.088 254.514 565.663 253.419 564.813C252.232 563.871 251.628 562.495 251.607 560.683C251.587 558.646 252.677 556.389 254.878 553.912L254.801 553.835L254.371 553.466L254.693 553.006L256.244 550.856L256.613 550.334L257.119 550.733C261.634 554.316 263.906 557.627 263.937 560.668C263.947 561.558 263.783 562.372 263.445 563.109C263.108 563.836 262.596 564.46 261.91 564.982C260.927 565.729 259.54 566.098 257.749 566.088Z" fill="white"/>
<path d="M234.042 548.845L235.408 550.211C235.603 550.406 235.7 550.621 235.7 550.856C235.71 551.081 235.613 551.286 235.408 551.47L233.98 552.898C233.786 553.113 233.566 553.221 233.32 553.221C233.085 553.221 232.865 553.118 232.66 552.913L231.232 551.486C231.027 551.281 230.935 551.061 230.956 550.825C230.976 550.59 231.089 550.37 231.293 550.165L232.629 548.829C232.762 548.686 232.911 548.589 233.074 548.537C233.248 548.486 233.417 548.491 233.581 548.553C233.745 548.604 233.898 548.701 234.042 548.845ZM229.113 548.845L230.48 550.211C230.674 550.406 230.771 550.621 230.771 550.856C230.782 551.081 230.684 551.286 230.48 551.47L229.052 552.898C228.857 553.113 228.637 553.221 228.391 553.221C228.156 553.221 227.936 553.118 227.731 552.913L226.303 551.486C226.098 551.281 226.006 551.061 226.027 550.825C226.047 550.59 226.16 550.37 226.365 550.165L227.7 548.829C227.915 548.614 228.151 548.512 228.407 548.522C228.663 548.522 228.898 548.63 229.113 548.845ZM231.57 544.929L232.952 546.296C233.074 546.429 233.156 546.572 233.197 546.726C233.238 546.869 233.238 547.017 233.197 547.171C233.167 547.314 233.085 547.452 232.952 547.585L231.524 549.013C231.329 549.208 231.109 549.305 230.863 549.305C230.628 549.305 230.403 549.208 230.188 549.013L228.76 547.585C228.565 547.371 228.473 547.145 228.483 546.91C228.504 546.674 228.617 546.454 228.821 546.25L230.157 544.914C230.3 544.771 230.454 544.678 230.618 544.637C230.782 544.586 230.945 544.586 231.109 544.637C231.273 544.689 231.426 544.786 231.57 544.929ZM217.137 562.08H218.472C219.148 562.08 219.696 561.993 220.115 561.819C220.545 561.645 220.868 561.389 221.083 561.051C221.308 560.703 221.446 560.253 221.497 559.7L221.758 556.829L221.82 556.276H222.372H224.184H224.722L224.798 556.798L225.182 559.685C225.295 560.555 225.551 561.179 225.95 561.558C226.349 561.937 226.928 562.126 227.685 562.126C228.094 562.126 228.432 562.054 228.698 561.911C228.975 561.768 229.2 561.522 229.374 561.174C229.548 560.816 229.661 560.34 229.712 559.746L230.004 556.829L230.05 556.276H230.618H232.43H232.952L233.028 556.798L233.428 559.746C233.55 560.637 233.786 561.271 234.134 561.65C234.492 562.019 234.989 562.198 235.623 562.188C236.002 562.188 236.299 562.126 236.514 562.003C236.739 561.88 236.918 561.691 237.051 561.435C237.42 560.708 237.486 559.593 237.251 558.088C237.128 557.279 236.928 556.276 236.652 555.078L236.529 554.541L237.067 554.357L239.477 553.589L240.045 553.405L240.245 553.973C240.695 555.242 240.977 556.696 241.089 558.334C241.11 558.682 241.12 559.014 241.12 559.332C241.13 560.406 241.023 561.364 240.798 562.203C240.573 563.042 240.235 563.754 239.784 564.337C239.334 564.921 238.761 565.366 238.065 565.673C237.369 565.98 236.57 566.134 235.669 566.134C233.898 566.154 232.517 565.566 231.524 564.368C230.602 565.555 229.302 566.149 227.624 566.149C225.658 566.139 224.164 565.56 223.14 564.414C221.994 565.571 220.427 566.149 218.442 566.149H217.137C216.881 566.149 216.65 566.082 216.446 565.949C216.005 565.673 215.785 565.156 215.785 564.399V563.877C215.785 563.088 216.005 562.551 216.446 562.264C216.65 562.142 216.881 562.08 217.137 562.08Z" fill="white"/>
<path d="M217.321 566.149H213.16C212.904 566.149 212.673 566.083 212.469 565.949C212.029 565.673 211.809 565.156 211.809 564.399V563.877C211.809 563.078 212.034 562.541 212.484 562.264C212.679 562.142 212.904 562.08 213.16 562.08H217.336C217.449 562.08 217.561 562.095 217.674 562.126C217.787 562.147 217.894 562.193 217.996 562.264C218.129 562.346 218.242 562.449 218.334 562.571C218.426 562.684 218.498 562.817 218.549 562.971C218.6 563.114 218.631 563.257 218.641 563.401C218.662 563.544 218.672 563.703 218.672 563.877V564.399C218.672 564.747 218.626 565.054 218.534 565.32C218.442 565.586 218.273 565.796 218.027 565.949C217.955 565.99 217.879 566.026 217.797 566.057C217.715 566.088 217.633 566.113 217.551 566.134C217.479 566.144 217.403 566.149 217.321 566.149Z" fill="white"/>
<path d="M213.344 562.08C213.59 562.08 213.81 562.142 214.004 562.264C214.444 562.551 214.664 563.088 214.664 563.877V564.399C214.664 564.562 214.654 564.716 214.634 564.859C214.624 564.992 214.593 565.131 214.542 565.274C214.501 565.407 214.434 565.535 214.342 565.658C214.25 565.77 214.142 565.868 214.02 565.949C213.815 566.083 213.579 566.149 213.313 566.149H212.837C212.039 566.149 211.297 566.001 210.611 565.704C209.925 565.397 209.306 564.951 208.753 564.368C207.299 565.781 204.914 566.487 201.598 566.487C200.011 566.487 198.353 566.185 196.623 565.581L196.224 565.443V565.013V562.126V561.19L197.068 561.558C197.703 561.824 198.384 562.029 199.11 562.172C199.837 562.305 200.62 562.372 201.46 562.372C203.773 562.372 205.293 562.008 206.02 561.282C206.122 561.179 206.173 561.072 206.173 560.959C206.173 560.765 206.112 560.545 205.989 560.299L202.181 552.545L201.936 552.054L202.396 551.747L204.684 550.288L205.283 549.904L205.575 550.534L209.598 559.132C210.488 561.046 211.588 562.024 212.899 562.065L213.344 562.08Z" fill="white"/>
<defs>
<filter id="filter0_ii_4_108" x="-3" y="217" width="232" height="118" filterUnits="userSpaceOnUse" color-interpolation-filters="sRGB">
<feFlood flood-opacity="0" result="BackgroundImageFix"/>
<feBlend mode="normal" in="SourceGraphic" in2="BackgroundImageFix" result="shape"/>
<feColorMatrix in="SourceAlpha" type="matrix" values="0 0 0 0 0 0 0 0 0 0 0 0 0 0 0 0 0 0 127 0" result="hardAlpha"/>
<feOffset dx="7" dy="6"/>
<feGaussianBlur stdDeviation="5.65"/>
<feComposite in2="hardAlpha" operator="arithmetic" k2="-1" k3="1"/>
<feColorMatrix type="matrix" values="0 0 0 0 0 0 0 0 0 0 0 0 0 0 0 0 0 0 0.25 0"/>
<feBlend mode="normal" in2="shape" result="effect1_innerShadow_4_108"/>
<feColorMatrix in="SourceAlpha" type="matrix" values="0 0 0 0 0 0 0 0 0 0 0 0 0 0 0 0 0 0 127 0" result="hardAlpha"/>
<feOffset dx="-3" dy="-2"/>
<feGaussianBlur stdDeviation="5.9"/>
<feComposite in2="hardAlpha" operator="arithmetic" k2="-1" k3="1"/>
<feColorMatrix type="matrix" values="0 0 0 0 1 0 0 0 0 1 0 0 0 0 1 0 0 0 0.07 0"/>
<feBlend mode="normal" in2="effect1_innerShadow_4_108" result="effect2_innerShadow_4_108"/>
</filter>
<filter id="filter1_ii_4_108" x="108" y="-2" width="233" height="119" filterUnits="userSpaceOnUse" color-interpolation-filters="sRGB">
<feFlood flood-opacity="0" result="BackgroundImageFix"/>
<feBlend mode="normal" in="SourceGraphic" in2="BackgroundImageFix" result="shape"/>
<feColorMatrix in="SourceAlpha" type="matrix" values="0 0 0 0 0 0 0 0 0 0 0 0 0 0 0 0 0 0 127 0" result="hardAlpha"/>
<feOffset dx="7" dy="6"/>
<feGaussianBlur stdDeviation="5.65"/>
<feComposite in2="hardAlpha" operator="arithmetic" k2="-1" k3="1"/>
<feColorMatrix type="matrix" values="0 0 0 0 0 0 0 0 0 0 0 0 0 0 0 0 0 0 0.25 0"/>
<feBlend mode="normal" in2="shape" result="effect1_innerShadow_4_108"/>
<feColorMatrix in="SourceAlpha" type="matrix" values="0 0 0 0 0 0 0 0 0 0 0 0 0 0 0 0 0 0 127 0" result="hardAlpha"/>
<feOffset dx="-3" dy="-2"/>
<feGaussianBlur stdDeviation="5.9"/>
<feComposite in2="hardAlpha" operator="arithmetic" k2="-1" k3="1"/>
<feColorMatrix type="matrix" values="0 0 0 0 1 0 0 0 0 1 0 0 0 0 1 0 0 0 0.07 0"/>
<feBlend mode="normal" in2="effect1_innerShadow_4_108" result="effect2_innerShadow_4_108"/>
</filter>
<filter id="filter2_ii_4_108" x="113" y="330" width="117" height="117" filterUnits="userSpaceOnUse" color-interpolation-filters="sRGB">
<feFlood flood-opacity="0" result="BackgroundImageFix"/>
<feBlend mode="normal" in="SourceGraphic" in2="BackgroundImageFix" result="shape"/>
<feColorMatrix in="SourceAlpha" type="matrix" values="0 0 0 0 0 0 0 0 0 0 0 0 0 0 0 0 0 0 127 0" result="hardAlpha"/>
<feOffset dx="7" dy="6"/>
<feGaussianBlur stdDeviation="5.65"/>
<feComposite in2="hardAlpha" operator="arithmetic" k2="-1" k3="1"/>
<feColorMatrix type="matrix" values="0 0 0 0 0 0 0 0 0 0 0 0 0 0 0 0 0 0 0.25 0"/>
<feBlend mode="normal" in2="shape" result="effect1_innerShadow_4_108"/>
<feColorMatrix in="SourceAlpha" type="matrix" values="0 0 0 0 0 0 0 0 0 0 0 0 0 0 0 0 0 0 127 0" result="hardAlpha"/>
<feOffset dx="-3" dy="-2"/>
<feGaussianBlur stdDeviation="5.9"/>
<feComposite in2="hardAlpha" operator="arithmetic" k2="-1" k3="1"/>
<feColorMatrix type="matrix" values="0 0 0 0 1 0 0 0 0 1 0 0 0 0 1 0 0 0 0.07 0"/>
<feBlend mode="normal" in2="effect1_innerShadow_4_108" result="effect2_innerShadow_4_108"/>
</filter>
<filter id="filter3_ii_4_108" x="219" y="330" width="234" height="119" filterUnits="userSpaceOnUse" color-interpolation-filters="sRGB">
<feFlood flood-opacity="0" result="BackgroundImageFix"/>
<feBlend mode="normal" in="SourceGraphic" in2="BackgroundImageFix" result="shape"/>
<feColorMatrix in="SourceAlpha" type="matrix" values="0 0 0 0 0 0 0 0 0 0 0 0 0 0 0 0 0 0 127 0" result="hardAlpha"/>
<feOffset dx="7" dy="6"/>
<feGaussianBlur stdDeviation="5.65"/>
<feComposite in2="hardAlpha" operator="arithmetic" k2="-1" k3="1"/>
<feColorMatrix type="matrix" values="0 0 0 0 0 0 0 0 0 0 0 0 0 0 0 0 0 0 0.25 0"/>
<feBlend mode="normal" in2="shape" result="effect1_innerShadow_4_108"/>
<feColorMatrix in="SourceAlpha" type="matrix" values="0 0 0 0 0 0 0 0 0 0 0 0 0 0 0 0 0 0 127 0" result="hardAlpha"/>
<feOffset dx="-3" dy="-2"/>
<feGaussianBlur stdDeviation="5.9"/>
<feComposite in2="hardAlpha" operator="arithmetic" k2="-1" k3="1"/>
<feColorMatrix type="matrix" values="0 0 0 0 1 0 0 0 0 1 0 0 0 0 1 0 0 0 0.07 0"/>
<feBlend mode="normal" in2="effect1_innerShadow_4_108" result="effect2_innerShadow_4_108"/>
</filter>
<filter id="filter4_ii_4_108" x="443" y="109" width="234" height="118" filterUnits="userSpaceOnUse" color-interpolation-filters="sRGB">
<feFlood flood-opacity="0" result="BackgroundImageFix"/>
<feBlend mode="normal" in="SourceGraphic" in2="BackgroundImageFix" result="shape"/>
<feColorMatrix in="SourceAlpha" type="matrix" values="0 0 0 0 0 0 0 0 0 0 0 0 0 0 0 0 0 0 127 0" result="hardAlpha"/>
<feOffset dx="7" dy="6"/>
<feGaussianBlur stdDeviation="5.65"/>
<feComposite in2="hardAlpha" operator="arithmetic" k2="-1" k3="1"/>
<feColorMatrix type="matrix" values="0 0 0 0 0 0 0 0 0 0 0 0 0 0 0 0 0 0 0.25 0"/>
<feBlend mode="normal" in2="shape" result="effect1_innerShadow_4_108"/>
<feColorMatrix in="SourceAlpha" type="matrix" values="0 0 0 0 0 0 0 0 0 0 0 0 0 0 0 0 0 0 127 0" result="hardAlpha"/>
<feOffset dx="-3" dy="-2"/>
<feGaussianBlur stdDeviation="5.9"/>
<feComposite in2="hardAlpha" operator="arithmetic" k2="-1" k3="1"/>
<feColorMatrix type="matrix" values="0 0 0 0 1 0 0 0 0 1 0 0 0 0 1 0 0 0 0.07 0"/>
<feBlend mode="normal" in2="effect1_innerShadow_4_108" result="effect2_innerShadow_4_108"/>
</filter>
<filter id="filter5_ii_4_108" x="326" y="2" width="117" height="116" filterUnits="userSpaceOnUse" color-interpolation-filters="sRGB">
<feFlood flood-opacity="0" result="BackgroundImageFix"/>
<feBlend mode="normal" in="SourceGraphic" in2="BackgroundImageFix" result="shape"/>
<feColorMatrix in="SourceAlpha" type="matrix" values="0 0 0 0 0 0 0 0 0 0 0 0 0 0 0 0 0 0 127 0" result="hardAlpha"/>
<feOffset dx="7" dy="6"/>
<feGaussianBlur stdDeviation="5.65"/>
<feComposite in2="hardAlpha" operator="arithmetic" k2="-1" k3="1"/>
<feColorMatrix type="matrix" values="0 0 0 0 0 0 0 0 0 0 0 0 0 0 0 0 0 0 0.25 0"/>
<feBlend mode="normal" in2="shape" result="effect1_innerShadow_4_108"/>
<feColorMatrix in="SourceAlpha" type="matrix" values="0 0 0 0 0 0 0 0 0 0 0 0 0 0 0 0 0 0 127 0" result="hardAlpha"/>
<feOffset dx="-3" dy="-2"/>
<feGaussianBlur stdDeviation="5.9"/>
<feComposite in2="hardAlpha" operator="arithmetic" k2="-1" k3="1"/>
<feColorMatrix type="matrix" values="0 0 0 0 1 0 0 0 0 1 0 0 0 0 1 0 0 0 0.07 0"/>
<feBlend mode="normal" in2="effect1_innerShadow_4_108" result="effect2_innerShadow_4_108"/>
</filter>
<filter id="filter6_ii_4_108" x="443" y="331" width="118" height="115" filterUnits="userSpaceOnUse" color-interpolation-filters="sRGB">
<feFlood flood-opacity="0" result="BackgroundImageFix"/>
<feBlend mode="normal" in="SourceGraphic" in2="BackgroundImageFix" result="shape"/>
<feColorMatrix in="SourceAlpha" type="matrix" values="0 0 0 0 0 0 0 0 0 0 0 0 0 0 0 0 0 0 127 0" result="hardAlpha"/>
<feOffset dx="7" dy="6"/>
<feGaussianBlur stdDeviation="5.65"/>
<feComposite in2="hardAlpha" operator="arithmetic" k2="-1" k3="1"/>
<feColorMatrix type="matrix" values="0 0 0 0 0 0 0 0 0 0 0 0 0 0 0 0 0 0 0.25 0"/>
<feBlend mode="normal" in2="shape" result="effect1_innerShadow_4_108"/>
<feColorMatrix in="SourceAlpha" type="matrix" values="0 0 0 0 0 0 0 0 0 0 0 0 0 0 0 0 0 0 127 0" result="hardAlpha"/>
<feOffset dx="-3" dy="-2"/>
<feGaussianBlur stdDeviation="5.9"/>
<feComposite in2="hardAlpha" operator="arithmetic" k2="-1" k3="1"/>
<feColorMatrix type="matrix" values="0 0 0 0 1 0 0 0 0 1 0 0 0 0 1 0 0 0 0.07 0"/>
<feBlend mode="normal" in2="effect1_innerShadow_4_108" result="effect2_innerShadow_4_108"/>
</filter>
<filter id="filter7_ii_4_108" x="220" y="109" width="233" height="231" filterUnits="userSpaceOnUse" color-interpolation-filters="sRGB">
<feFlood flood-opacity="0" result="BackgroundImageFix"/>
<feBlend mode="normal" in="SourceGraphic" in2="BackgroundImageFix" result="shape"/>
<feColorMatrix in="SourceAlpha" type="matrix" values="0 0 0 0 0 0 0 0 0 0 0 0 0 0 0 0 0 0 127 0" result="hardAlpha"/>
<feOffset dx="7" dy="6"/>
<feGaussianBlur stdDeviation="5.65"/>
<feComposite in2="hardAlpha" operator="arithmetic" k2="-1" k3="1"/>
<feColorMatrix type="matrix" values="0 0 0 0 0 0 0 0 0 0 0 0 0 0 0 0 0 0 0.25 0"/>
<feBlend mode="normal" in2="shape" result="effect1_innerShadow_4_108"/>
<feColorMatrix in="SourceAlpha" type="matrix" values="0 0 0 0 0 0 0 0 0 0 0 0 0 0 0 0 0 0 127 0" result="hardAlpha"/>
<feOffset dx="-3" dy="-2"/>
<feGaussianBlur stdDeviation="5.9"/>
<feComposite in2="hardAlpha" operator="arithmetic" k2="-1" k3="1"/>
<feColorMatrix type="matrix" values="0 0 0 0 1 0 0 0 0 1 0 0 0 0 1 0 0 0 0.07 0"/>
<feBlend mode="normal" in2="effect1_innerShadow_4_108" result="effect2_innerShadow_4_108"/>
</filter>
<filter id="filter8_dd_4_108" x="203.8" y="255.993" width="273.4" height="167.007" filterUnits="userSpaceOnUse" color-interpolation-filters="sRGB">
<feFlood flood-opacity="0" result="BackgroundImageFix"/>
<feColorMatrix in="SourceAlpha" type="matrix" values="0 0 0 0 0 0 0 0 0 0 0 0 0 0 0 0 0 0 127 0" result="hardAlpha"/>
<feOffset dy="4"/>
<feGaussianBlur stdDeviation="2"/>
<feComposite in2="hardAlpha" operator="out"/>
<feColorMatrix type="matrix" values="0 0 0 0 0 0 0 0 0 0 0 0 0 0 0 0 0 0 0.25 0"/>
<feBlend mode="normal" in2="BackgroundImageFix" result="effect1_dropShadow_4_108"/>
<feColorMatrix in="SourceAlpha" type="matrix" values="0 0 0 0 0 0 0 0 0 0 0 0 0 0 0 0 0 0 127 0" result="hardAlpha"/>
<feOffset dy="-4"/>
<feGaussianBlur stdDeviation="3.1"/>
<feComposite in2="hardAlpha" operator="out"/>
<feColorMatrix type="matrix" values="0 0 0 0 1 0 0 0 0 1 0 0 0 0 1 0 0 0 0.15 0"/>
<feBlend mode="normal" in2="effect1_dropShadow_4_108" result="effect2_dropShadow_4_108"/>
<feBlend mode="normal" in="SourceGraphic" in2="effect2_dropShadow_4_108" result="shape"/>
</filter>
<filter id="filter9_dd_4_108" x="394.458" y="215.111" width="24.0745" height="14.022" filterUnits="userSpaceOnUse" color-interpolation-filters="sRGB">
<feFlood flood-opacity="0" result="BackgroundImageFix"/>
<feColorMatrix in="SourceAlpha" type="matrix" values="0 0 0 0 0 0 0 0 0 0 0 0 0 0 0 0 0 0 127 0" result="hardAlpha"/>
<feMorphology radius="1" operator="erode" in="SourceAlpha" result="effect1_dropShadow_4_108"/>
<feOffset dx="1" dy="1"/>
<feGaussianBlur stdDeviation="2.55"/>
<feComposite in2="hardAlpha" operator="out"/>
<feColorMatrix type="matrix" values="0 0 0 0 0 0 0 0 0 0 0 0 0 0 0 0 0 0 0.42 0"/>
<feBlend mode="normal" in2="BackgroundImageFix" result="effect1_dropShadow_4_108"/>
<feColorMatrix in="SourceAlpha" type="matrix" values="0 0 0 0 0 0 0 0 0 0 0 0 0 0 0 0 0 0 127 0" result="hardAlpha"/>
<feOffset dx="-1" dy="-1"/>
<feGaussianBlur stdDeviation="1.3"/>
<feComposite in2="hardAlpha" operator="out"/>
<feColorMatrix type="matrix" values="0 0 0 0 0.866667 0 0 0 0 0.705882 0 0 0 0 0.52549 0 0 0 0.4 0"/>
<feBlend mode="normal" in2="effect1_dropShadow_4_108" result="effect2_dropShadow_4_108"/>
<feBlend mode="normal" in="SourceGraphic" in2="effect2_dropShadow_4_108" result="shape"/>
</filter>
<filter id="filter10_dd_4_108" x="251.948" y="215.111" width="24.0745" height="14.022" filterUnits="userSpaceOnUse" color-interpolation-filters="sRGB">
<feFlood flood-opacity="0" result="BackgroundImageFix"/>
<feColorMatrix in="SourceAlpha" type="matrix" values="0 0 0 0 0 0 0 0 0 0 0 0 0 0 0 0 0 0 127 0" result="hardAlpha"/>
<feMorphology radius="1" operator="erode" in="SourceAlpha" result="effect1_dropShadow_4_108"/>
<feOffset dx="1" dy="1"/>
<feGaussianBlur stdDeviation="2.55"/>
<feComposite in2="hardAlpha" operator="out"/>
<feColorMatrix type="matrix" values="0 0 0 0 0 0 0 0 0 0 0 0 0 0 0 0 0 0 0.42 0"/>
<feBlend mode="normal" in2="BackgroundImageFix" result="effect1_dropShadow_4_108"/>
<feColorMatrix in="SourceAlpha" type="matrix" values="0 0 0 0 0 0 0 0 0 0 0 0 0 0 0 0 0 0 127 0" result="hardAlpha"/>
<feOffset dx="-1" dy="-1"/>
<feGaussianBlur stdDeviation="1.3"/>
<feComposite in2="hardAlpha" operator="out"/>
<feColorMatrix type="matrix" values="0 0 0 0 0.866667 0 0 0 0 0.705882 0 0 0 0 0.52549 0 0 0 0.4 0"/>
<feBlend mode="normal" in2="effect1_dropShadow_4_108" result="effect2_dropShadow_4_108"/>
<feBlend mode="normal" in="SourceGraphic" in2="effect2_dropShadow_4_108" result="shape"/>
</filter>
<filter id="filter11_dd_4_108" x="328.229" y="138.829" width="13.4307" height="24.0745" filterUnits="userSpaceOnUse" color-interpolation-filters="sRGB">
<feFlood flood-opacity="0" result="BackgroundImageFix"/>
<feColorMatrix in="SourceAlpha" type="matrix" values="0 0 0 0 0 0 0 0 0 0 0 0 0 0 0 0 0 0 127 0" result="hardAlpha"/>
<feMorphology radius="1" operator="erode" in="SourceAlpha" result="effect1_dropShadow_4_108"/>
<feOffset dx="1" dy="1"/>
<feGaussianBlur stdDeviation="2.55"/>
<feComposite in2="hardAlpha" operator="out"/>
<feColorMatrix type="matrix" values="0 0 0 0 0 0 0 0 0 0 0 0 0 0 0 0 0 0 0.42 0"/>
<feBlend mode="normal" in2="BackgroundImageFix" result="effect1_dropShadow_4_108"/>
<feColorMatrix in="SourceAlpha" type="matrix" values="0 0 0 0 0 0 0 0 0 0 0 0 0 0 0 0 0 0 127 0" result="hardAlpha"/>
<feOffset dx="-1" dy="-1"/>
<feGaussianBlur stdDeviation="1.3"/>
<feComposite in2="hardAlpha" operator="out"/>
<feColorMatrix type="matrix" values="0 0 0 0 0.866667 0 0 0 0 0.705882 0 0 0 0 0.52549 0 0 0 0.4 0"/>
<feBlend mode="normal" in2="effect1_dropShadow_4_108" result="effect2_dropShadow_4_108"/>
<feBlend mode="normal" in="SourceGraphic" in2="effect2_dropShadow_4_108" result="shape"/>
</filter>
<filter id="filter12_dd_4_108" x="328.229" y="280.748" width="13.4307" height="24.6659" filterUnits="userSpaceOnUse" color-interpolation-filters="sRGB">
<feFlood flood-opacity="0" result="BackgroundImageFix"/>
<feColorMatrix in="SourceAlpha" type="matrix" values="0 0 0 0 0 0 0 0 0 0 0 0 0 0 0 0 0 0 127 0" result="hardAlpha"/>
<feMorphology radius="1" operator="erode" in="SourceAlpha" result="effect1_dropShadow_4_108"/>
<feOffset dx="1" dy="1"/>
<feGaussianBlur stdDeviation="2.55"/>
<feComposite in2="hardAlpha" operator="out"/>
<feColorMatrix type="matrix" values="0 0 0 0 0 0 0 0 0 0 0 0 0 0 0 0 0 0 0.42 0"/>
<feBlend mode="normal" in2="BackgroundImageFix" result="effect1_dropShadow_4_108"/>
<feColorMatrix in="SourceAlpha" type="matrix" values="0 0 0 0 0 0 0 0 0 0 0 0 0 0 0 0 0 0 127 0" result="hardAlpha"/>
<feOffset dx="-1" dy="-1"/>
<feGaussianBlur stdDeviation="1.3"/>
<feComposite in2="hardAlpha" operator="out"/>
<feColorMatrix type="matrix" values="0 0 0 0 0.866667 0 0 0 0 0.705882 0 0 0 0 0.52549 0 0 0 0.4 0"/>
<feBlend mode="normal" in2="effect1_dropShadow_4_108" result="effect2_dropShadow_4_108"/>
<feBlend mode="normal" in="SourceGraphic" in2="effect2_dropShadow_4_108" result="shape"/>
</filter>
<filter id="filter13_dd_4_108" x="261.147" y="175.825" width="24.6454" height="20.7968" filterUnits="userSpaceOnUse" color-interpolation-filters="sRGB">
<feFlood flood-opacity="0" result="BackgroundImageFix"/>
<feColorMatrix in="SourceAlpha" type="matrix" values="0 0 0 0 0 0 0 0 0 0 0 0 0 0 0 0 0 0 127 0" result="hardAlpha"/>
<feMorphology radius="1" operator="erode" in="SourceAlpha" result="effect1_dropShadow_4_108"/>
<feOffset dx="1" dy="1"/>
<feGaussianBlur stdDeviation="2.55"/>
<feComposite in2="hardAlpha" operator="out"/>
<feColorMatrix type="matrix" values="0 0 0 0 0 0 0 0 0 0 0 0 0 0 0 0 0 0 0.42 0"/>
<feBlend mode="normal" in2="BackgroundImageFix" result="effect1_dropShadow_4_108"/>
<feColorMatrix in="SourceAlpha" type="matrix" values="0 0 0 0 0 0 0 0 0 0 0 0 0 0 0 0 0 0 127 0" result="hardAlpha"/>
<feOffset dx="-1" dy="-1"/>
<feGaussianBlur stdDeviation="1.3"/>
<feComposite in2="hardAlpha" operator="out"/>
<feColorMatrix type="matrix" values="0 0 0 0 0.866667 0 0 0 0 0.705882 0 0 0 0 0.52549 0 0 0 0.4 0"/>
<feBlend mode="normal" in2="effect1_dropShadow_4_108" result="effect2_dropShadow_4_108"/>
<feBlend mode="normal" in="SourceGraphic" in2="effect2_dropShadow_4_108" result="shape"/>
</filter>
<filter id="filter14_dd_4_108" x="384.726" y="247.173" width="24.6454" height="20.7968" filterUnits="userSpaceOnUse" color-interpolation-filters="sRGB">
<feFlood flood-opacity="0" result="BackgroundImageFix"/>
<feColorMatrix in="SourceAlpha" type="matrix" values="0 0 0 0 0 0 0 0 0 0 0 0 0 0 0 0 0 0 127 0" result="hardAlpha"/>
<feMorphology radius="1" operator="erode" in="SourceAlpha" result="effect1_dropShadow_4_108"/>
<feOffset dx="1" dy="1"/>
<feGaussianBlur stdDeviation="2.55"/>
<feComposite in2="hardAlpha" operator="out"/>
<feColorMatrix type="matrix" values="0 0 0 0 0 0 0 0 0 0 0 0 0 0 0 0 0 0 0.42 0"/>
<feBlend mode="normal" in2="BackgroundImageFix" result="effect1_dropShadow_4_108"/>
<feColorMatrix in="SourceAlpha" type="matrix" values="0 0 0 0 0 0 0 0 0 0 0 0 0 0 0 0 0 0 127 0" result="hardAlpha"/>
<feOffset dx="-1" dy="-1"/>
<feGaussianBlur stdDeviation="1.3"/>
<feComposite in2="hardAlpha" operator="out"/>
<feColorMatrix type="matrix" values="0 0 0 0 0.866667 0 0 0 0 0.705882 0 0 0 0 0.52549 0 0 0 0.4 0"/>
<feBlend mode="normal" in2="effect1_dropShadow_4_108" result="effect2_dropShadow_4_108"/>
<feBlend mode="normal" in="SourceGraphic" in2="effect2_dropShadow_4_108" result="shape"/>
</filter>
<filter id="filter15_dd_4_108" x="261.147" y="247.173" width="24.6454" height="20.7968" filterUnits="userSpaceOnUse" color-interpolation-filters="sRGB">
<feFlood flood-opacity="0" result="BackgroundImageFix"/>
<feColorMatrix in="SourceAlpha" type="matrix" values="0 0 0 0 0 0 0 0 0 0 0 0 0 0 0 0 0 0 127 0" result="hardAlpha"/>
<feMorphology radius="1" operator="erode" in="SourceAlpha" result="effect1_dropShadow_4_108"/>
<feOffset dx="1" dy="1"/>
<feGaussianBlur stdDeviation="2.55"/>
<feComposite in2="hardAlpha" operator="out"/>
<feColorMatrix type="matrix" values="0 0 0 0 0 0 0 0 0 0 0 0 0 0 0 0 0 0 0.42 0"/>
<feBlend mode="normal" in2="BackgroundImageFix" result="effect1_dropShadow_4_108"/>
<feColorMatrix in="SourceAlpha" type="matrix" values="0 0 0 0 0 0 0 0 0 0 0 0 0 0 0 0 0 0 127 0" result="hardAlpha"/>
<feOffset dx="-1" dy="-1"/>
<feGaussianBlur stdDeviation="1.3"/>
<feComposite in2="hardAlpha" operator="out"/>
<feColorMatrix type="matrix" values="0 0 0 0 0.866667 0 0 0 0 0.705882 0 0 0 0 0.52549 0 0 0 0.4 0"/>
<feBlend mode="normal" in2="effect1_dropShadow_4_108" result="effect2_dropShadow_4_108"/>
<feBlend mode="normal" in="SourceGraphic" in2="effect2_dropShadow_4_108" result="shape"/>
</filter>
<filter id="filter16_dd_4_108" x="384.727" y="175.825" width="24.6454" height="20.7968" filterUnits="userSpaceOnUse" color-interpolation-filters="sRGB">
<feFlood flood-opacity="0" result="BackgroundImageFix"/>
<feColorMatrix in="SourceAlpha" type="matrix" values="0 0 0 0 0 0 0 0 0 0 0 0 0 0 0 0 0 0 127 0" result="hardAlpha"/>
<feMorphology radius="1" operator="erode" in="SourceAlpha" result="effect1_dropShadow_4_108"/>
<feOffset dx="1" dy="1"/>
<feGaussianBlur stdDeviation="2.55"/>
<feComposite in2="hardAlpha" operator="out"/>
<feColorMatrix type="matrix" values="0 0 0 0 0 0 0 0 0 0 0 0 0 0 0 0 0 0 0.42 0"/>
<feBlend mode="normal" in2="BackgroundImageFix" result="effect1_dropShadow_4_108"/>
<feColorMatrix in="SourceAlpha" type="matrix" values="0 0 0 0 0 0 0 0 0 0 0 0 0 0 0 0 0 0 127 0" result="hardAlpha"/>
<feOffset dx="-1" dy="-1"/>
<feGaussianBlur stdDeviation="1.3"/>
<feComposite in2="hardAlpha" operator="out"/>
<feColorMatrix type="matrix" values="0 0 0 0 0.866667 0 0 0 0 0.705882 0 0 0 0 0.52549 0 0 0 0.4 0"/>
<feBlend mode="normal" in2="effect1_dropShadow_4_108" result="effect2_dropShadow_4_108"/>
<feBlend mode="normal" in="SourceGraphic" in2="effect2_dropShadow_4_108" result="shape"/>
</filter>
<filter id="filter17_dd_4_108" x="289.187" y="271.364" width="20.7968" height="24.6454" filterUnits="userSpaceOnUse" color-interpolation-filters="sRGB">
<feFlood flood-opacity="0" result="BackgroundImageFix"/>
<feColorMatrix in="SourceAlpha" type="matrix" values="0 0 0 0 0 0 0 0 0 0 0 0 0 0 0 0 0 0 127 0" result="hardAlpha"/>
<feMorphology radius="1" operator="erode" in="SourceAlpha" result="effect1_dropShadow_4_108"/>
<feOffset dx="1" dy="1"/>
<feGaussianBlur stdDeviation="2.55"/>
<feComposite in2="hardAlpha" operator="out"/>
<feColorMatrix type="matrix" values="0 0 0 0 0 0 0 0 0 0 0 0 0 0 0 0 0 0 0.42 0"/>
<feBlend mode="normal" in2="BackgroundImageFix" result="effect1_dropShadow_4_108"/>
<feColorMatrix in="SourceAlpha" type="matrix" values="0 0 0 0 0 0 0 0 0 0 0 0 0 0 0 0 0 0 127 0" result="hardAlpha"/>
<feOffset dx="-1" dy="-1"/>
<feGaussianBlur stdDeviation="1.3"/>
<feComposite in2="hardAlpha" operator="out"/>
<feColorMatrix type="matrix" values="0 0 0 0 0.866667 0 0 0 0 0.705882 0 0 0 0 0.52549 0 0 0 0.4 0"/>
<feBlend mode="normal" in2="effect1_dropShadow_4_108" result="effect2_dropShadow_4_108"/>
<feBlend mode="normal" in="SourceGraphic" in2="effect2_dropShadow_4_108" result="shape"/>
</filter>
<filter id="filter18_dd_4_108" x="360.535" y="147.785" width="20.7968" height="24.6454" filterUnits="userSpaceOnUse" color-interpolation-filters="sRGB">
<feFlood flood-opacity="0" result="BackgroundImageFix"/>
<feColorMatrix in="SourceAlpha" type="matrix" values="0 0 0 0 0 0 0 0 0 0 0 0 0 0 0 0 0 0 127 0" result="hardAlpha"/>
<feMorphology radius="1" operator="erode" in="SourceAlpha" result="effect1_dropShadow_4_108"/>
<feOffset dx="1" dy="1"/>
<feGaussianBlur stdDeviation="2.55"/>
<feComposite in2="hardAlpha" operator="out"/>
<feColorMatrix type="matrix" values="0 0 0 0 0 0 0 0 0 0 0 0 0 0 0 0 0 0 0.42 0"/>
<feBlend mode="normal" in2="BackgroundImageFix" result="effect1_dropShadow_4_108"/>
<feColorMatrix in="SourceAlpha" type="matrix" values="0 0 0 0 0 0 0 0 0 0 0 0 0 0 0 0 0 0 127 0" result="hardAlpha"/>
<feOffset dx="-1" dy="-1"/>
<feGaussianBlur stdDeviation="1.3"/>
<feComposite in2="hardAlpha" operator="out"/>
<feColorMatrix type="matrix" values="0 0 0 0 0.866667 0 0 0 0 0.705882 0 0 0 0 0.52549 0 0 0 0.4 0"/>
<feBlend mode="normal" in2="effect1_dropShadow_4_108" result="effect2_dropShadow_4_108"/>
<feBlend mode="normal" in="SourceGraphic" in2="effect2_dropShadow_4_108" result="shape"/>
</filter>
<filter id="filter19_dd_4_108" x="360.535" y="271.364" width="20.7969" height="24.6454" filterUnits="userSpaceOnUse" color-interpolation-filters="sRGB">
<feFlood flood-opacity="0" result="BackgroundImageFix"/>
<feColorMatrix in="SourceAlpha" type="matrix" values="0 0 0 0 0 0 0 0 0 0 0 0 0 0 0 0 0 0 127 0" result="hardAlpha"/>
<feMorphology radius="1" operator="erode" in="SourceAlpha" result="effect1_dropShadow_4_108"/>
<feOffset dx="1" dy="1"/>
<feGaussianBlur stdDeviation="2.55"/>
<feComposite in2="hardAlpha" operator="out"/>
<feColorMatrix type="matrix" values="0 0 0 0 0 0 0 0 0 0 0 0 0 0 0 0 0 0 0.42 0"/>
<feBlend mode="normal" in2="BackgroundImageFix" result="effect1_dropShadow_4_108"/>
<feColorMatrix in="SourceAlpha" type="matrix" values="0 0 0 0 0 0 0 0 0 0 0 0 0 0 0 0 0 0 127 0" result="hardAlpha"/>
<feOffset dx="-1" dy="-1"/>
<feGaussianBlur stdDeviation="1.3"/>
<feComposite in2="hardAlpha" operator="out"/>
<feColorMatrix type="matrix" values="0 0 0 0 0.866667 0 0 0 0 0.705882 0 0 0 0 0.52549 0 0 0 0.4 0"/>
<feBlend mode="normal" in2="effect1_dropShadow_4_108" result="effect2_dropShadow_4_108"/>
<feBlend mode="normal" in="SourceGraphic" in2="effect2_dropShadow_4_108" result="shape"/>
</filter>
<filter id="filter20_dd_4_108" x="289.187" y="147.785" width="20.7969" height="24.6454" filterUnits="userSpaceOnUse" color-interpolation-filters="sRGB">
<feFlood flood-opacity="0" result="BackgroundImageFix"/>
<feColorMatrix in="SourceAlpha" type="matrix" values="0 0 0 0 0 0 0 0 0 0 0 0 0 0 0 0 0 0 127 0" result="hardAlpha"/>
<feMorphology radius="1" operator="erode" in="SourceAlpha" result="effect1_dropShadow_4_108"/>
<feOffset dx="1" dy="1"/>
<feGaussianBlur stdDeviation="2.55"/>
<feComposite in2="hardAlpha" operator="out"/>
<feColorMatrix type="matrix" values="0 0 0 0 0 0 0 0 0 0 0 0 0 0 0 0 0 0 0.42 0"/>
<feBlend mode="normal" in2="BackgroundImageFix" result="effect1_dropShadow_4_108"/>
<feColorMatrix in="SourceAlpha" type="matrix" values="0 0 0 0 0 0 0 0 0 0 0 0 0 0 0 0 0 0 127 0" result="hardAlpha"/>
<feOffset dx="-1" dy="-1"/>
<feGaussianBlur stdDeviation="1.3"/>
<feComposite in2="hardAlpha" operator="out"/>
<feColorMatrix type="matrix" values="0 0 0 0 0.866667 0 0 0 0 0.705882 0 0 0 0 0.52549 0 0 0 0.4 0"/>
<feBlend mode="normal" in2="effect1_dropShadow_4_108" result="effect2_dropShadow_4_108"/>
<feBlend mode="normal" in="SourceGraphic" in2="effect2_dropShadow_4_108" result="shape"/>
</filter>
<filter id="filter21_dd_4_108" x="272.297" y="160.361" width="126.286" height="126.286" filterUnits="userSpaceOnUse" color-interpolation-filters="sRGB">
<feFlood flood-opacity="0" result="BackgroundImageFix"/>
<feColorMatrix in="SourceAlpha" type="matrix" values="0 0 0 0 0 0 0 0 0 0 0 0 0 0 0 0 0 0 127 0" result="hardAlpha"/>
<feMorphology radius="1" operator="erode" in="SourceAlpha" result="effect1_dropShadow_4_108"/>
<feOffset dx="8" dy="8"/>
<feGaussianBlur stdDeviation="4.45"/>
<feComposite in2="hardAlpha" operator="out"/>
<feColorMatrix type="matrix" values="0 0 0 0 0 0 0 0 0 0 0 0 0 0 0 0 0 0 0.42 0"/>
<feBlend mode="normal" in2="BackgroundImageFix" result="effect1_dropShadow_4_108"/>
<feColorMatrix in="SourceAlpha" type="matrix" values="0 0 0 0 0 0 0 0 0 0 0 0 0 0 0 0 0 0 127 0" result="hardAlpha"/>
<feOffset dx="-4" dy="-4"/>
<feGaussianBlur stdDeviation="5"/>
<feComposite in2="hardAlpha" operator="out"/>
<feColorMatrix type="matrix" values="0 0 0 0 0.866667 0 0 0 0 0.705882 0 0 0 0 0.52549 0 0 0 0.4 0"/>
<feBlend mode="normal" in2="effect1_dropShadow_4_108" result="effect2_dropShadow_4_108"/>
<feBlend mode="normal" in="SourceGraphic" in2="effect2_dropShadow_4_108" result="shape"/>
</filter>
<filter id="filter22_dd_4_108" x="281.838" y="400.03" width="109.676" height="109.676" filterUnits="userSpaceOnUse" color-interpolation-filters="sRGB">
<feFlood flood-opacity="0" result="BackgroundImageFix"/>
<feColorMatrix in="SourceAlpha" type="matrix" values="0 0 0 0 0 0 0 0 0 0 0 0 0 0 0 0 0 0 127 0" result="hardAlpha"/>
<feOffset dx="4" dy="3"/>
<feGaussianBlur stdDeviation="5"/>
<feComposite in2="hardAlpha" operator="out"/>
<feColorMatrix type="matrix" values="0 0 0 0 1 0 0 0 0 1 0 0 0 0 1 0 0 0 0.21 0"/>
<feBlend mode="normal" in2="BackgroundImageFix" result="effect1_dropShadow_4_108"/>
<feColorMatrix in="SourceAlpha" type="matrix" values="0 0 0 0 0 0 0 0 0 0 0 0 0 0 0 0 0 0 127 0" result="hardAlpha"/>
<feMorphology radius="2" operator="erode" in="SourceAlpha" result="effect2_dropShadow_4_108"/>
<feOffset dx="-5" dy="-6"/>
<feGaussianBlur stdDeviation="3.1"/>
<feComposite in2="hardAlpha" operator="out"/>
<feColorMatrix type="matrix" values="0 0 0 0 0 0 0 0 0 0 0 0 0 0 0 0 0 0 0.3 0"/>
<feBlend mode="normal" in2="effect1_dropShadow_4_108" result="effect2_dropShadow_4_108"/>
<feBlend mode="normal" in="SourceGraphic" in2="effect2_dropShadow_4_108" result="shape"/>
</filter>
<filter id="filter23_ii_4_108" x="305.226" y="425.918" width="58.7995" height="57.2995" filterUnits="userSpaceOnUse" color-interpolation-filters="sRGB">
<feFlood flood-opacity="0" result="BackgroundImageFix"/>
<feBlend mode="normal" in="SourceGraphic" in2="BackgroundImageFix" result="shape"/>
<feColorMatrix in="SourceAlpha" type="matrix" values="0 0 0 0 0 0 0 0 0 0 0 0 0 0 0 0 0 0 127 0" result="hardAlpha"/>
<feOffset dx="-4" dy="-2"/>
<feGaussianBlur stdDeviation="1.75"/>
<feComposite in2="hardAlpha" operator="arithmetic" k2="-1" k3="1"/>
<feColorMatrix type="matrix" values="0 0 0 0 1 0 0 0 0 1 0 0 0 0 1 0 0 0 0.21 0"/>
<feBlend mode="normal" in2="shape" result="effect1_innerShadow_4_108"/>
<feColorMatrix in="SourceAlpha" type="matrix" values="0 0 0 0 0 0 0 0 0 0 0 0 0 0 0 0 0 0 127 0" result="hardAlpha"/>
<feMorphology radius="2" operator="dilate" in="SourceAlpha" result="effect2_innerShadow_4_108"/>
<feOffset dx="5" dy="6"/>
<feGaussianBlur stdDeviation="3.1"/>
<feComposite in2="hardAlpha" operator="arithmetic" k2="-1" k3="1"/>
<feColorMatrix type="matrix" values="0 0 0 0 0 0 0 0 0 0 0 0 0 0 0 0 0 0 0.3 0"/>
<feBlend mode="normal" in2="effect1_innerShadow_4_108" result="effect2_innerShadow_4_108"/>
</filter>
<linearGradient id="paint0_linear_4_108" x1="110.987" y1="215.497" x2="110.987" y2="326.92" gradientUnits="userSpaceOnUse">
<stop stop-color="#2C2E33"/>
<stop offset="1" stop-color="#292B30"/>
</linearGradient>
<linearGradient id="paint1_linear_4_108" x1="222.487" y1="-3.53434" x2="222.487" y2="108.901" gradientUnits="userSpaceOnUse">
<stop stop-color="#2C2E33"/>
<stop offset="1" stop-color="#292B30"/>
</linearGradient>
<linearGradient id="paint2_linear_4_108" x1="169.494" y1="328.529" x2="169.494" y2="438.939" gradientUnits="userSpaceOnUse">
<stop stop-color="#2C2E33"/>
<stop offset="1" stop-color="#292B30"/>
</linearGradient>
<linearGradient id="paint3_linear_4_108" x1="333.987" y1="328.466" x2="333.987" y2="440.901" gradientUnits="userSpaceOnUse">
<stop stop-color="#2C2E33"/>
<stop offset="1" stop-color="#292B30"/>
</linearGradient>
<linearGradient id="paint4_linear_4_108" x1="557.987" y1="107.497" x2="557.987" y2="218.92" gradientUnits="userSpaceOnUse">
<stop stop-color="#2C2E33"/>
<stop offset="1" stop-color="#292B30"/>
</linearGradient>
<linearGradient id="paint5_linear_4_108" x1="382.494" y1="0.561182" x2="382.494" y2="109.958" gradientUnits="userSpaceOnUse">
<stop stop-color="#2C2E33"/>
<stop offset="1" stop-color="#292B30"/>
</linearGradient>
<linearGradient id="paint6_linear_4_108" x1="442.561" y1="386.506" x2="551.958" y2="386.506" gradientUnits="userSpaceOnUse">
<stop stop-color="#2C2E33"/>
<stop offset="1" stop-color="#292B30"/>
</linearGradient>
<linearGradient id="paint7_linear_4_108" x1="334.487" y1="103.899" x2="334.487" y2="329.783" gradientUnits="userSpaceOnUse">
<stop stop-color="#2C2E33"/>
<stop offset="1" stop-color="#292B30"/>
</linearGradient>
<linearGradient id="paint8_linear_4_108" x1="405.745" y1="218.711" x2="405.745" y2="224.033" gradientUnits="userSpaceOnUse">
<stop stop-color="#F1C495"/>
<stop offset="1" stop-color="#BE9B6F"/>
</linearGradient>
<linearGradient id="paint9_linear_4_108" x1="263.235" y1="218.711" x2="263.235" y2="224.033" gradientUnits="userSpaceOnUse">
<stop stop-color="#F1C495"/>
<stop offset="1" stop-color="#BE9B6F"/>
</linearGradient>
<linearGradient id="paint10_linear_4_108" x1="339.517" y1="157.804" x2="339.517" y2="162.535" gradientUnits="userSpaceOnUse">
<stop stop-color="#F1C495"/>
<stop offset="1" stop-color="#BE9B6F"/>
</linearGradient>
<linearGradient id="paint11_linear_4_108" x1="339.812" y1="300.314" x2="339.812" y2="305.045" gradientUnits="userSpaceOnUse">
<stop stop-color="#F1C495"/>
<stop offset="1" stop-color="#BE9B6F"/>
</linearGradient>
<linearGradient id="paint12_linear_4_108" x1="285.95" y1="191.521" x2="285.95" y2="196.528" gradientUnits="userSpaceOnUse">
<stop stop-color="#F1C495"/>
<stop offset="1" stop-color="#BE9B6F"/>
</linearGradient>
<linearGradient id="paint13_linear_4_108" x1="409.529" y1="262.87" x2="409.529" y2="267.877" gradientUnits="userSpaceOnUse">
<stop stop-color="#F1C495"/>
<stop offset="1" stop-color="#BE9B6F"/>
</linearGradient>
<linearGradient id="paint14_linear_4_108" x1="288.453" y1="255.109" x2="288.453" y2="260.116" gradientUnits="userSpaceOnUse">
<stop stop-color="#F1C495"/>
<stop offset="1" stop-color="#BE9B6F"/>
</linearGradient>
<linearGradient id="paint15_linear_4_108" x1="412.033" y1="183.761" x2="412.033" y2="188.768" gradientUnits="userSpaceOnUse">
<stop stop-color="#F1C495"/>
<stop offset="1" stop-color="#BE9B6F"/>
</linearGradient>
<linearGradient id="paint16_linear_4_108" x1="312.645" y1="277.468" x2="312.645" y2="282.475" gradientUnits="userSpaceOnUse">
<stop stop-color="#F1C495"/>
<stop offset="1" stop-color="#BE9B6F"/>
</linearGradient>
<linearGradient id="paint17_linear_4_108" x1="383.993" y1="153.888" x2="383.993" y2="158.895" gradientUnits="userSpaceOnUse">
<stop stop-color="#F1C495"/>
<stop offset="1" stop-color="#BE9B6F"/>
</linearGradient>
<linearGradient id="paint18_linear_4_108" x1="376.232" y1="274.964" x2="376.232" y2="279.971" gradientUnits="userSpaceOnUse">
<stop stop-color="#F1C495"/>
<stop offset="1" stop-color="#BE9B6F"/>
</linearGradient>
<linearGradient id="paint19_linear_4_108" x1="304.884" y1="151.385" x2="304.884" y2="156.392" gradientUnits="userSpaceOnUse">
<stop stop-color="#F1C495"/>
<stop offset="1" stop-color="#BE9B6F"/>
</linearGradient>
<linearGradient id="paint20_linear_4_108" x1="334.49" y1="174.361" x2="334.49" y2="270.748" gradientUnits="userSpaceOnUse">
<stop stop-color="#F1C495"/>
<stop offset="1" stop-color="#BE9B6F"/>
</linearGradient>
<linearGradient id="paint21_linear_4_108" x1="223.125" y1="373.514" x2="223.125" y2="533.857" gradientUnits="userSpaceOnUse">
<stop stop-color="white"/>
<stop offset="1" stop-color="#999999"/>
</linearGradient>
<linearGradient id="paint22_linear_4_108" x1="443.125" y1="373.514" x2="443.125" y2="533.857" gradientUnits="userSpaceOnUse">
<stop stop-color="white"/>
<stop offset="1" stop-color="#999999"/>
</linearGradient>
<linearGradient id="paint23_linear_4_108" x1="272.544" y1="410.23" x2="460.864" y2="523.795" gradientUnits="userSpaceOnUse">
<stop stop-color="#D9D9D9"/>
<stop offset="1" stop-color="#737373"/>
</linearGradient>
<linearGradient id="paint24_linear_4_108" x1="297.798" y1="427.918" x2="409.078" y2="495.025" gradientUnits="userSpaceOnUse">
<stop stop-color="#D9D9D9"/>
<stop offset="1" stop-color="#737373"/>
</linearGradient>
</defs>
</svg>
